<svg id="Layer_1" data-name="Layer 1" xmlns="http://www.w3.org/2000/svg" xmlns:xlink="http://www.w3.org/1999/xlink" viewBox="0 0 34.47 28.97"><defs><style>.cls-1{fill:none;}.cls-2{clip-path:url(#clip-path);}.cls-3{fill:#d70036;}</style><clipPath id="clip-path"><rect class="cls-1" x="4.86" y="4.07" width="24.46" height="20.38"/></clipPath></defs><title>Ratings Academy SVGs</title><g class="cls-2"><path class="cls-3" d="M26.26,24.45a1,1,0,0,0,1-1V14.26a10.19,10.19,0,1,0-20.38,0v9.17a1,1,0,0,0,1,1h1a2,2,0,0,0,2-2V18.33a2,2,0,0,0-2-2V13.75A8.06,8.06,0,0,1,17.09,6a8.06,8.06,0,0,1,8.15,7.77V16.3a2,2,0,0,0-2,2v4.08a2,2,0,0,0,2,2h1.1Zm2-7.13v6.11a5.1,5.1,0,0,0,0-6.11M5.88,23.43V17.32a5.1,5.1,0,0,0,0,6.11"/></g></svg>