<svg id="Layer_1" data-name="Layer 1" xmlns="http://www.w3.org/2000/svg" viewBox="0 0 34.47 28.97"><defs><style>.cls-1{fill:#d70036;}</style></defs><title>Ratings Academy SVGs</title><path class="cls-1" d="M26.36,5H8.22A2.66,2.66,0,0,0,5.56,7.69V20.75A2.66,2.66,0,0,0,8.22,23.4H26.36A2.66,2.66,0,0,0,29,20.75V7.69A2.66,2.66,0,0,0,26.36,5Zm1.05,16.41H7.17V6.8H27.41V21.44Z"/><rect class="cls-1" x="8.44" y="14.09" width="17.59" height="0.31"/><rect class="cls-1" x="8.44" y="12.49" width="2.83" height="0.31"/><rect class="cls-1" x="13.54" y="12.49" width="12.5" height="0.31"/><rect class="cls-1" x="8.44" y="10.88" width="9.67" height="0.31"/><rect class="cls-1" x="22.22" y="10.88" width="3.67" height="0.31"/><rect class="cls-1" x="8.44" y="9.28" width="5.3" height="0.31"/><rect class="cls-1" x="15.32" y="9.28" width="3.34" height="0.31"/><rect class="cls-1" x="19.81" y="9.28" width="6.09" height="0.31"/><rect class="cls-1" x="8.44" y="7.68" width="14.33" height="0.31"/><rect class="cls-1" x="23.51" y="7.68" width="2.36" height="0.31"/></svg>