<svg id="Layer_1" data-name="Layer 1" xmlns="http://www.w3.org/2000/svg" xmlns:xlink="http://www.w3.org/1999/xlink" viewBox="0 0 34.47 28.97"><defs><style>.cls-1{fill:none;}.cls-2{clip-path:url(#clip-path);}.cls-3{fill:#d70036;}</style><clipPath id="clip-path"><rect class="cls-1" x="5.35" y="2.86" width="23.29" height="23.19"/></clipPath></defs><title>Ratings Academy SVGs</title><g class="cls-2"><path class="cls-3" d="M24.75,17a0.78,0.78,0,1,0,.77.77A0.78,0.78,0,0,0,24.75,17"/><path class="cls-3" d="M28.12,2.86H5.86a0.51,0.51,0,0,0-.51.51v14a0.51,0.51,0,0,0,.51.51H23.08a0.22,0.22,0,0,0,0-.44H5.86a0.07,0.07,0,0,1-.07-0.07v-14a0.07,0.07,0,0,1,.07-0.07H28.12a0.07,0.07,0,0,1,.07.07v14a0.07,0.07,0,0,1-.07.07H26.46a0.22,0.22,0,1,0,0,.44h1.67a0.51,0.51,0,0,0,.51-0.51v-14a0.52,0.52,0,0,0-.51-0.51"/><path class="cls-3" d="M15.19,18.59h3.6a0.15,0.15,0,0,1,.15.15V19.2a0.15,0.15,0,0,1-.15.15h-3.6A0.14,0.14,0,0,1,15,19.2V18.74a0.15,0.15,0,0,1,.15-0.15Z"/><path class="cls-3" d="M13.1,20.11v0.46a0.15,0.15,0,0,0,.15.15h7.49a0.15,0.15,0,0,0,.15-0.15V20.11A0.15,0.15,0,0,0,20.74,20H13.25a0.15,0.15,0,0,0-.15.14"/><path class="cls-3" d="M17,14.25a3.92,3.92,0,1,1,3.92-3.92A3.92,3.92,0,0,1,17,14.25m9.71,1.42V5.09a0.29,0.29,0,0,0-.29-0.29H7.58a0.29,0.29,0,0,0-.29.29V15.67a0.29,0.29,0,0,0,.29.29H26.41a0.29,0.29,0,0,0,.29-0.29"/></g><polygon class="cls-3" points="16.35 12.07 18.56 10.33 16.35 8.59 16.35 12.07"/><g class="cls-2"><path class="cls-3" d="M20.41,24.85A0.55,0.55,0,1,1,21,24.3a0.55,0.55,0,0,1-.55.55m-3.42,0a0.55,0.55,0,1,1,.55-0.55,0.55,0.55,0,0,1-.55.55m-3.42,0a0.55,0.55,0,1,1,.55-0.55,0.55,0.55,0,0,1-.55.55m8.14-5.49a0.26,0.26,0,0,0-.14.49c2.76,0.8,3.19,1.56,3.2,1.94,0,0.66-1,1.32-1.93,1.75v-0.8a0.19,0.19,0,0,0-.18-0.2H11.32a0.19,0.19,0,0,0-.18.2v3.1a0.19,0.19,0,0,0,.18.2H22.66a0.19,0.19,0,0,0,.18-0.2V24.11c0.24-.11.52-0.24,0.8-0.4,1.11-.62,1.66-1.27,1.65-1.93,0-.94-1.19-1.74-3.57-2.43"/></g></svg>