<svg id="Layer_1" data-name="Layer 1" xmlns="http://www.w3.org/2000/svg" viewBox="0 0 34.47 28.97"><defs><style>.cls-1{fill:#d70036;}.cls-2{fill:#fff;}</style></defs><title>Ratings Academy SVGs</title><path class="cls-1" d="M19.89,26.16h5.18a1.1,1.1,0,0,0,1.1-1.1V16.6a1.1,1.1,0,0,0,0-.18,1.1,1.1,0,0,0-.38-1L18.1,9a1.1,1.1,0,0,0-1.41,0L9,15.4a1.1,1.1,0,0,0-.38,1,1.05,1.05,0,0,0,0,.18v8.47a1.1,1.1,0,0,0,1.1,1.1H19.89ZM30.23,13.47l-4.8-4V5.24a0.66,0.66,0,0,0-.66-0.66H23.28a0.66,0.66,0,0,0-.66.66V7.09l-3.55-3a2.71,2.71,0,0,0-3.37,0L4.56,13.47c-1.28,1.07-1.32,1.94-.09,1.94H6.7l9.85-8.27a1.36,1.36,0,0,1,1.68,0l9.85,8.27h2.22C31.54,15.41,31.5,14.54,30.23,13.47Z"/><circle class="cls-2" cx="19.74" cy="17.65" r="0.25"/><rect class="cls-2" x="14.21" y="13.56" width="6.15" height="3.53" rx="0.09" ry="0.09"/><path class="cls-2" d="M20.81,12.94H13.76a0.16,0.16,0,0,0-.16.16v4.44a0.16,0.16,0,0,0,.16.16h5.45a0.07,0.07,0,1,0,0-.14H13.76a0,0,0,0,1,0,0V13.11a0,0,0,0,1,0,0h7.05a0,0,0,0,1,0,0v4.44a0,0,0,0,1,0,0H20.28a0.07,0.07,0,0,0,0,.14h0.53A0.16,0.16,0,0,0,21,17.55V13.11A0.16,0.16,0,0,0,20.81,12.94Z"/><circle class="cls-2" cx="17.19" cy="20.17" r="0.19"/><rect class="cls-2" x="15" y="20.65" width="4.4" height="2.53" rx="0.09" ry="0.09"/><path class="cls-2" d="M13.44,23.49a0,0,0,0,1,0,0V21.23a0,0,0,0,1,0,0h0.69a0,0,0,0,1,0,0v2.21a0,0,0,0,1,0,0H13.44Z"/><path class="cls-2" d="M16.13,18a0,0,0,0,1,0,0h2.21a0,0,0,0,1,0,0v0.69a0,0,0,0,1,0,0H16.18a0,0,0,0,1,0,0V18Z"/><path class="cls-2" d="M19.84,23.73H14.56a0.16,0.16,0,0,1-.16-0.16v-3.3a0.16,0.16,0,0,1,.16-0.16h2.21a0.07,0.07,0,0,1,0,.13H14.56a0,0,0,0,0,0,0v3.3a0,0,0,0,0,0,0h5.28a0,0,0,0,0,0,0v-3.3a0,0,0,0,0,0,0H17.63a0.07,0.07,0,0,1,0-.13h2.21a0.16,0.16,0,0,1,.16.16v3.3a0.16,0.16,0,0,1-.16.16h0Z"/><ellipse class="cls-2" cx="15.17" cy="24.32" rx="0.18" ry="0.08"/><ellipse class="cls-2" cx="14.58" cy="24.32" rx="0.18" ry="0.08"/><ellipse class="cls-2" cx="14.23" cy="24.61" rx="0.18" ry="0.08"/><ellipse class="cls-2" cx="15.76" cy="24.32" rx="0.18" ry="0.08"/><ellipse class="cls-2" cx="16.35" cy="24.32" rx="0.18" ry="0.08"/><ellipse class="cls-2" cx="16.94" cy="24.32" rx="0.18" ry="0.08"/><ellipse class="cls-2" cx="17.53" cy="24.32" rx="0.18" ry="0.08"/><ellipse class="cls-2" cx="18.12" cy="24.32" rx="0.18" ry="0.08"/><ellipse class="cls-2" cx="18.71" cy="24.32" rx="0.18" ry="0.08"/><ellipse class="cls-2" cx="19.3" cy="24.32" rx="0.18" ry="0.08"/><ellipse class="cls-2" cx="19.88" cy="24.32" rx="0.18" ry="0.08"/><ellipse class="cls-2" cx="20.24" cy="24.61" rx="0.18" ry="0.08"/><ellipse class="cls-2" cx="14.89" cy="24.03" rx="0.18" ry="0.08"/><ellipse class="cls-2" cx="15.47" cy="24.03" rx="0.18" ry="0.08"/><ellipse class="cls-2" cx="16.06" cy="24.03" rx="0.18" ry="0.08"/><ellipse class="cls-2" cx="16.65" cy="24.03" rx="0.18" ry="0.08"/><ellipse class="cls-2" cx="17.24" cy="24.03" rx="0.18" ry="0.08"/><ellipse class="cls-2" cx="17.83" cy="24.03" rx="0.18" ry="0.08"/><ellipse class="cls-2" cx="18.42" cy="24.03" rx="0.18" ry="0.08"/><ellipse class="cls-2" cx="19.01" cy="24.03" rx="0.18" ry="0.08"/><ellipse class="cls-2" cx="19.6" cy="24.03" rx="0.18" ry="0.08"/><ellipse class="cls-2" cx="14.83" cy="24.61" rx="0.18" ry="0.08"/><ellipse class="cls-2" cx="15.43" cy="24.61" rx="0.18" ry="0.08"/><ellipse class="cls-2" cx="16.03" cy="24.61" rx="0.18" ry="0.08"/><ellipse class="cls-2" cx="16.63" cy="24.61" rx="0.18" ry="0.08"/><ellipse class="cls-2" cx="17.23" cy="24.61" rx="0.18" ry="0.08"/><ellipse class="cls-2" cx="17.83" cy="24.61" rx="0.18" ry="0.08"/><ellipse class="cls-2" cx="18.44" cy="24.61" rx="0.18" ry="0.08"/><ellipse class="cls-2" cx="19.04" cy="24.61" rx="0.18" ry="0.08"/><ellipse class="cls-2" cx="19.64" cy="24.61" rx="0.18" ry="0.08"/><path class="cls-2" d="M21.1,25.21H13.31A0.11,0.11,0,0,1,13.23,25l1.11-1.33a0.28,0.28,0,0,1,.2-0.09h5.34a0.28,0.28,0,0,1,.2.09L21.19,25A0.11,0.11,0,0,1,21.1,25.21Zm-7.71-.15H21L20,23.79a0.14,0.14,0,0,0-.08,0H14.54a0.14,0.14,0,0,0-.08,0Z"/></svg>