<svg id="Layer_1" data-name="Layer 1" xmlns="http://www.w3.org/2000/svg" viewBox="0 0 34.47 28.97"><defs><style>.cls-1{fill:#d70036;}.cls-2{fill:#fff;}</style></defs><title>Ratings Academy SVGs</title><circle class="cls-1" cx="17.19" cy="14.61" r="7.92"/><path class="cls-1" d="M17.26,9A5.59,5.59,0,0,0,14.81,19.6l2.25,6.26a0.2,0.2,0,0,0,.39,0l2.25-6.26A5.59,5.59,0,0,0,17.26,9Z"/><path class="cls-1" d="M22.85,14.58a5.59,5.59,0,0,0-10.61-2.45L6,14.38a0.2,0.2,0,0,0,0,.39L12.24,17A5.59,5.59,0,0,0,22.85,14.58Z"/><path class="cls-1" d="M17.26,20.17A5.59,5.59,0,0,0,19.71,9.55L17.46,3.29a0.2,0.2,0,0,0-.39,0L14.81,9.55A5.59,5.59,0,0,0,17.26,20.17Z"/><path class="cls-1" d="M11.67,14.58A5.59,5.59,0,0,0,22.29,17l6.26-2.25a0.2,0.2,0,0,0,0-.39l-6.26-2.25A5.59,5.59,0,0,0,11.67,14.58Z"/><circle class="cls-2" cx="17.19" cy="14.61" r="6.29"/><path class="cls-1" d="M21.21,12.17a8.17,8.17,0,0,0-1.85-.25,6.15,6.15,0,0,0-1.85.25,0.15,0.15,0,0,0-.1.13v5a0.08,0.08,0,0,0,.1.08,10,10,0,0,1,1.75-.21,14.13,14.13,0,0,1,1.94.22,0.08,0.08,0,0,0,.1-0.08v-5A0.14,0.14,0,0,0,21.21,12.17ZM21,16.42s-1-.13-1.6-0.14a10.07,10.07,0,0,0-1.49.14h0a0,0,0,0,1,0-.09,10.07,10.07,0,0,1,1.51-.14c0.61,0,1.6.14,1.61,0.14A0,0,0,0,1,21,16.42Zm0-.68s-1-.13-1.6-0.14a10.14,10.14,0,0,0-1.49.14h0a0,0,0,0,1,0-.09,10.06,10.06,0,0,1,1.51-.14c0.61,0,1.6.14,1.61,0.14a0,0,0,0,1,0,0A0,0,0,0,1,21,15.75Zm0-.68s-1-.13-1.6-0.14a10.08,10.08,0,0,0-1.49.14h0a0,0,0,0,1,0-.09,10.09,10.09,0,0,1,1.51-.14C20,14.85,21,15,21,15A0,0,0,0,1,21,15.07Zm0-.51s-1-.13-1.6-0.14a10.09,10.09,0,0,0-1.49.14h0a0,0,0,0,1,0-.09,10,10,0,0,1,1.51-.14c0.61,0,1.6.14,1.61,0.14A0,0,0,0,1,21,14.56Zm0-.68s-1-.13-1.6-0.14a10,10,0,0,0-1.49.14h0a0,0,0,0,1,0-.09,10.11,10.11,0,0,1,1.51-.14c0.61,0,1.6.14,1.61,0.14A0,0,0,0,1,21,13.88Zm0-.68s-1-.13-1.6-0.14a10.07,10.07,0,0,0-1.49.14h0a0,0,0,0,1,0-.09A10.11,10.11,0,0,1,19.38,13C20,13,21,13.12,21,13.12A0,0,0,1,1,21,13.2Z"/><path class="cls-1" d="M13.21,12.3v5a0.08,0.08,0,0,0,.1.08,14.13,14.13,0,0,1,1.94-.22,10,10,0,0,1,1.75.21,0.08,0.08,0,0,0,.1-0.08v-5a0.15,0.15,0,0,0-.1-0.13,6.15,6.15,0,0,0-1.85-.25,8.17,8.17,0,0,0-1.85.25A0.14,0.14,0,0,0,13.21,12.3Zm0.28,4.09a0,0,0,0,1,0,0s1-.13,1.61-0.14a10.07,10.07,0,0,1,1.51.14,0,0,0,0,1,0,.09h0a10.07,10.07,0,0,0-1.49-.14c-0.61,0-1.59.14-1.6,0.14A0,0,0,0,1,13.49,16.38Zm0-.68a0,0,0,0,1,0,0s1-.13,1.61-0.14a10.06,10.06,0,0,1,1.51.14,0,0,0,0,1,0,.09h0a10.14,10.14,0,0,0-1.49-.14c-0.61,0-1.59.14-1.6,0.14A0,0,0,0,1,13.49,15.71Zm0-.68a0,0,0,0,1,0,0s1-.13,1.61-0.14a10.09,10.09,0,0,1,1.51.14,0,0,0,0,1,0,.09h0a10.08,10.08,0,0,0-1.49-.14c-0.61,0-1.59.14-1.6,0.14A0,0,0,0,1,13.49,15Zm0-.51a0,0,0,0,1,0,0s1-.13,1.61-0.14a10,10,0,0,1,1.51.14,0,0,0,0,1,0,.09h0a10.09,10.09,0,0,0-1.49-.14c-0.61,0-1.59.14-1.6,0.14A0,0,0,0,1,13.49,14.52Zm0-.68a0,0,0,0,1,0,0s1-.13,1.61-0.14a10.11,10.11,0,0,1,1.51.14,0,0,0,0,1,0,.09h0a10,10,0,0,0-1.49-.14c-0.61,0-1.59.14-1.6,0.14A0,0,0,0,1,13.49,13.84Zm0-.68a0,0,0,0,1,0,0s1-.13,1.61-0.14a10.11,10.11,0,0,1,1.51.14,0,0,0,0,1,0,.09h0a10.07,10.07,0,0,0-1.49-.14c-0.61,0-1.59.14-1.6,0.14A0,0,0,0,1,13.49,13.17Z"/></svg>