<svg id="Layer_1" data-name="Layer 1" xmlns="http://www.w3.org/2000/svg" viewBox="0 0 34.47 28.97"><defs><style>.cls-1{fill:#d70036;}</style></defs><title>Ratings Academy SVGs</title><path class="cls-1" d="M30.45,6.29a27.21,27.21,0,0,0-6.15-.84,20.5,20.5,0,0,0-6.15.83,0.5,0.5,0,0,0-.32.44V23.34a0.26,0.26,0,0,0,.33.26A33.14,33.14,0,0,1,24,22.9a47.09,47.09,0,0,1,6.45.72,0.27,0.27,0,0,0,.33-0.28V6.72A0.47,0.47,0,0,0,30.45,6.29ZM29.67,20.46S26.35,20,24.33,20a33.55,33.55,0,0,0-5,.46h0a0.15,0.15,0,0,1,0-.29,33.55,33.55,0,0,1,5-.47c2,0,5.34.46,5.38,0.47A0.15,0.15,0,0,1,29.67,20.46Zm0-2.25s-3.32-.43-5.34-0.47a33.77,33.77,0,0,0-5,.46h0a0.15,0.15,0,0,1,0-.29,33.51,33.51,0,0,1,5-.47c2,0,5.34.46,5.38,0.47a0.15,0.15,0,0,1,.13.17A0.15,0.15,0,0,1,29.67,18.21Zm0-2.25s-3.32-.43-5.34-0.46a33.57,33.57,0,0,0-5,.46h0a0.15,0.15,0,0,1,0-.29,33.62,33.62,0,0,1,5-.47c2,0,5.34.46,5.38,0.47A0.15,0.15,0,0,1,29.67,16Zm0-1.71s-3.32-.43-5.34-0.46a33.6,33.6,0,0,0-5,.46h0a0.15,0.15,0,0,1,0-.29,33.3,33.3,0,0,1,5-.47c2,0,5.34.46,5.38,0.47A0.15,0.15,0,0,1,29.67,14.25Zm0-2.25s-3.32-.43-5.34-0.46a33.44,33.44,0,0,0-5,.46h0a0.15,0.15,0,0,1,0-.29,33.68,33.68,0,0,1,5-.47c2,0,5.34.46,5.38,0.47A0.15,0.15,0,0,1,29.67,12Zm0-2.25s-3.32-.43-5.34-0.46a33.55,33.55,0,0,0-5,.46h0a0.15,0.15,0,0,1,0-.29,33.68,33.68,0,0,1,5-.47c2,0,5.34.46,5.38,0.47A0.15,0.15,0,1,1,29.67,9.74Z"/><path class="cls-1" d="M3.78,6.72V23.34a0.27,0.27,0,0,0,.33.28,47.09,47.09,0,0,1,6.45-.72,33.14,33.14,0,0,1,5.83.71,0.26,0.26,0,0,0,.33-0.26V6.72a0.5,0.5,0,0,0-.32-0.44,20.5,20.5,0,0,0-6.15-.83,27.21,27.21,0,0,0-6.15.84A0.47,0.47,0,0,0,3.78,6.72ZM4.72,20.33a0.15,0.15,0,0,1,.13-0.16s3.33-.43,5.38-0.47a33.55,33.55,0,0,1,5,.47,0.15,0.15,0,0,1,0,.29h0a33.55,33.55,0,0,0-5-.46c-2,0-5.31.46-5.34,0.46A0.15,0.15,0,0,1,4.72,20.33Zm0-2.25a0.15,0.15,0,0,1,.13-0.17s3.33-.43,5.38-0.47a33.51,33.51,0,0,1,5,.47,0.15,0.15,0,0,1,0,.29h0a33.77,33.77,0,0,0-5-.46c-2,0-5.31.46-5.34,0.47A0.15,0.15,0,0,1,4.72,18.08Zm0-2.25a0.15,0.15,0,0,1,.13-0.16s3.33-.43,5.38-0.47a33.62,33.62,0,0,1,5,.47,0.15,0.15,0,0,1,0,.29h0a33.57,33.57,0,0,0-5-.46c-2,0-5.31.46-5.34,0.46A0.15,0.15,0,0,1,4.72,15.83Zm0-1.71A0.15,0.15,0,0,1,4.84,14s3.33-.43,5.38-0.47a33.3,33.3,0,0,1,5,.47,0.15,0.15,0,0,1,0,.29h0a33.6,33.6,0,0,0-5-.46c-2,0-5.31.46-5.34,0.46A0.15,0.15,0,0,1,4.72,14.12Zm0-2.25a0.15,0.15,0,0,1,.13-0.16s3.33-.43,5.38-0.47a33.68,33.68,0,0,1,5,.47,0.15,0.15,0,0,1,0,.29h0a33.44,33.44,0,0,0-5-.46c-2,0-5.31.46-5.34,0.46A0.15,0.15,0,0,1,4.72,11.87Zm0-2.25a0.15,0.15,0,0,1,.13-0.17S8.18,9,10.22,9a33.68,33.68,0,0,1,5,.47,0.15,0.15,0,0,1,0,.29h0a33.55,33.55,0,0,0-5-.46c-2,0-5.31.46-5.34,0.46A0.15,0.15,0,0,1,4.72,9.61Z"/></svg>