<svg id="Layer_1" data-name="Layer 1" xmlns="http://www.w3.org/2000/svg" xmlns:xlink="http://www.w3.org/1999/xlink" viewBox="0 0 34.47 28.97"><defs><style>.cls-1{fill:none;}.cls-2{clip-path:url(#clip-path);}.cls-3{fill:#d70036;}</style><clipPath id="clip-path"><rect class="cls-1" x="8.11" y="2.94" width="18.4" height="23.1"/></clipPath></defs><title>Ratings Academy SVGs</title><g class="cls-2"><path class="cls-3" d="M16.54,23.73a0.77,0.77,0,1,1,.76.76,0.77,0.77,0,0,1-.76-0.76"/><path class="cls-3" d="M8.56,25.58H26V3.39H8.56V25.58ZM26,26H8.57a0.44,0.44,0,0,1-.46-0.42V3.35a0.44,0.44,0,0,1,.46-0.42H26a0.44,0.44,0,0,1,.46.42V25.61A0.44,0.44,0,0,1,26,26"/><path class="cls-3" d="M24,20.1V5.87a0.16,0.16,0,0,0-.18-0.13H10.86a0.16,0.16,0,0,0-.17.13V21.11a0.16,0.16,0,0,0,.17.13H23.78A0.16,0.16,0,0,0,24,21.11V19.92"/></g></svg>