<svg id="Layer_1" data-name="Layer 1" xmlns="http://www.w3.org/2000/svg" xmlns:xlink="http://www.w3.org/1999/xlink" viewBox="0 0 194 131.99"><defs><style>.cls-1,.cls-5{fill:none;}.cls-2{clip-path:url(#clip-path);}.cls-3{opacity:0.23;}.cls-4{clip-path:url(#clip-path-3);}.cls-5{stroke:#d70036;stroke-miterlimit:10;stroke-width:3px;}.cls-6{clip-path:url(#clip-path-4);}.cls-7{clip-path:url(#clip-path-5);}.cls-8{clip-path:url(#clip-path-6);}.cls-9{clip-path:url(#clip-path-7);}.cls-10{fill:#d70036;}</style><clipPath id="clip-path"><rect class="cls-1" width="194" height="131.99"/></clipPath><clipPath id="clip-path-3"><rect class="cls-1" x="7.5" y="7.99" width="21" height="109.31"/></clipPath><clipPath id="clip-path-4"><rect class="cls-1" x="48.5" y="7.99" width="21" height="109.31"/></clipPath><clipPath id="clip-path-5"><rect class="cls-1" x="89.5" y="7.99" width="21" height="109.31"/></clipPath><clipPath id="clip-path-6"><rect class="cls-1" x="130.5" y="7.99" width="21" height="109.31"/></clipPath><clipPath id="clip-path-7"><rect class="cls-1" x="171.5" y="7.99" width="21" height="109.31"/></clipPath></defs><title>Ratings Academy SVGs</title><g class="cls-2"><g class="cls-2"><g class="cls-3"><g class="cls-4"><line class="cls-5" x1="18" y1="14.99" x2="18" y2="116.3"/></g></g><g class="cls-3"><g class="cls-6"><line class="cls-5" x1="59" y1="14.99" x2="59" y2="116.3"/></g></g><g class="cls-3"><g class="cls-7"><line class="cls-5" x1="100" y1="14.99" x2="100" y2="116.3"/></g></g><g class="cls-3"><g class="cls-8"><line class="cls-5" x1="141" y1="14.99" x2="141" y2="116.3"/></g></g><g class="cls-3"><g class="cls-9"><line class="cls-5" x1="182" y1="14.99" x2="182" y2="116.3"/></g></g></g><rect class="cls-10" x="170.2" y="0.1" width="23.8" height="23.8"/><rect class="cls-10" x="170.2" y="108.19" width="23.8" height="23.8"/><polygon class="cls-10" points="11.2 108.19 0 131.99 23.8 131.99 35 108.19 11.2 108.19"/><polygon class="cls-10" points="11.2 0 0 23.8 23.8 23.8 35 0 11.2 0"/><rect class="cls-10" x="91.61" y="3.56" width="16.77" height="16.77" transform="translate(20.84 74.21) rotate(-45)"/><rect class="cls-10" x="91.61" y="111.64" width="16.77" height="16.77" transform="translate(-55.58 105.87) rotate(-45)"/><polygon class="cls-10" points="45.53 23.8 72.89 23.8 59.21 0.1 45.53 23.8"/><polygon class="cls-10" points="45.53 131.89 72.89 131.89 59.21 108.19 45.53 131.89"/><polygon class="cls-10" points="127.54 0.1 141.03 23.8 154.53 0.1 127.54 0.1"/><polygon class="cls-10" points="127.54 108.19 141.03 131.89 154.53 108.19 127.54 108.19"/></g></svg>