<svg id="Layer_1" data-name="Layer 1" xmlns="http://www.w3.org/2000/svg" xmlns:xlink="http://www.w3.org/1999/xlink" viewBox="0 0 15.57 17.57"><defs><style>.cls-1,.cls-3{fill:none;}.cls-2{clip-path:url(#clip-path);}.cls-3{stroke:#fff;stroke-miterlimit:10;}</style><clipPath id="clip-path"><rect class="cls-1" width="15.57" height="17.57"/></clipPath></defs><title>Ratings Academy SVGs</title><g class="cls-2"><path class="cls-3" d="M15.07,6.2L13.34,4.87V1.33H10.53v1.4C8.33,1,7.81.63,7.81,0.63L0.5,6.2V16.28a0.85,0.85,0,0,0,1,.79h3.6a0.48,0.48,0,0,0,.49-0.48V11.15a0.48,0.48,0,0,1,.49-0.48H9.52a0.48,0.48,0,0,1,.49.48v5.44a0.48,0.48,0,0,0,.49.48h3.58a0.93,0.93,0,0,0,1-.79V6.2Z"/></g></svg>