<svg id="Layer_1" data-name="Layer 1" xmlns="http://www.w3.org/2000/svg" xmlns:xlink="http://www.w3.org/1999/xlink" viewBox="0 0 624.82 296.07"><defs><style>.cls-1{fill:none;}.cls-2{clip-path:url(#clip-path);}.cls-3{opacity:0.04;}.cls-4{clip-path:url(#clip-path-3);}.cls-5{fill:#646569;}</style><clipPath id="clip-path"><rect class="cls-1" width="624.82" height="296.07"/></clipPath><clipPath id="clip-path-3"><rect class="cls-1" x="-11.95" y="-73.87" width="649.42" height="437.85"/></clipPath></defs><title>Ratings Academy SVGs</title><g class="cls-2"><g class="cls-2"><g class="cls-3"><g class="cls-4"><path class="cls-5" d="M601.5,0.18a26.41,26.41,0,0,0-27.64,35.9L515.81,81.9a26.13,26.13,0,0,0-12.67-5.05,26.41,26.41,0,0,0-26.62,14.31l-89-29.35A26.37,26.37,0,1,0,339.9,78.61L277.17,193.29a26.05,26.05,0,0,0-6.69-1.73A26.36,26.36,0,0,0,246,202.3l-53.48-35.17a27,27,0,0,0,.67-3.41,26.4,26.4,0,1,0-51.71,3.76L39.3,246.63a26.5,26.5,0,1,0,9.73,9.5l99.28-76.87a26.34,26.34,0,0,0,37.67-.33l55.17,36.27a26.38,26.38,0,1,0,46.94-13.8L350.57,87.18a26.37,26.37,0,0,0,34-12.14l89.15,29.39a26.38,26.38,0,1,0,50.48-12l57.66-45.5A26.39,26.39,0,1,0,601.5.18"/></g></g></g></g></svg>