<svg id="Layer_1" data-name="Layer 1" xmlns="http://www.w3.org/2000/svg" xmlns:xlink="http://www.w3.org/1999/xlink" viewBox="0 0 205.7 206"><defs><style>.cls-1,.cls-3{fill:none;}.cls-2{clip-path:url(#clip-path);}.cls-3{stroke:#099dd9;stroke-miterlimit:10;stroke-width:6px;}.cls-4{opacity:0.75;}.cls-5{clip-path:url(#clip-path-3);}.cls-6{fill:#fff;}.cls-7{opacity:0.5;}.cls-8{clip-path:url(#clip-path-4);}</style><clipPath id="clip-path"><rect class="cls-1" width="205.7" height="206"/></clipPath><clipPath id="clip-path-3"><rect class="cls-1" x="53.81" y="70.77" width="40.72" height="67.65"/></clipPath><clipPath id="clip-path-4"><rect class="cls-1" x="111.37" y="89.57" width="40.72" height="48.86"/></clipPath></defs><title>Ratings Academy SVGs</title><g class="cls-2"><g class="cls-2"><ellipse class="cls-3" cx="102.85" cy="103" rx="99.85" ry="100"/><g class="cls-4"><g class="cls-5"><path class="cls-6" d="M85.53,80.53a2.76,2.76,0,0,0-2.75-2.75H65.55a2.76,2.76,0,0,0-2.75,2.75v54.15a2.75,2.75,0,0,0,2.75,2.75H82.78a2.75,2.75,0,0,0,2.75-2.75V80.53Z"/></g></g><path class="cls-6" d="M114.34,59.28a2.76,2.76,0,0,0-2.75-2.75H94.36a2.76,2.76,0,0,0-2.75,2.75v75.4a2.75,2.75,0,0,0,2.75,2.75h17.23a2.75,2.75,0,0,0,2.75-2.75V59.28Z"/><g class="cls-7"><g class="cls-8"><rect class="cls-6" x="120.37" y="96.57" width="22.72" height="40.86" rx="2.75" ry="2.75"/></g></g><path class="cls-6" d="M140.34,149.47c1.5,0,2.73-.33,2.73-0.72v-4.55c0-.4-1.23-0.73-2.73-0.73H65.53c-1.5,0-2.73.33-2.73,0.73v4.55c0,0.4,1.22.72,2.73,0.72h74.8Z"/></g></g></svg>