<svg id="Layer_1" data-name="Layer 1" xmlns="http://www.w3.org/2000/svg" xmlns:xlink="http://www.w3.org/1999/xlink" viewBox="0 0 188.59 129.69"><defs><style>.cls-1,.cls-7{fill:none;}.cls-2{clip-path:url(#clip-path);}.cls-3{clip-path:url(#clip-path-2);}.cls-4{fill:#d70036;}.cls-5{opacity:0.23;}.cls-6{clip-path:url(#clip-path-3);}.cls-7{stroke:#d70036;stroke-miterlimit:10;stroke-width:3px;}.cls-8{clip-path:url(#clip-path-4);}.cls-9{clip-path:url(#clip-path-5);}.cls-10{clip-path:url(#clip-path-6);}.cls-11{clip-path:url(#clip-path-7);}</style><clipPath id="clip-path"><rect class="cls-1" width="188.59" height="129.69"/></clipPath><clipPath id="clip-path-2"><rect class="cls-1" width="188.59" height="129.69"/></clipPath><clipPath id="clip-path-3"><rect class="cls-1" x="84" y="2.5" width="21" height="119.19"/></clipPath><clipPath id="clip-path-4"><rect class="cls-1" x="84.1" y="3.16" width="62.31" height="119.06"/></clipPath><clipPath id="clip-path-5"><rect class="cls-1" x="84.3" y="2.1" width="102.91" height="120.48"/></clipPath><clipPath id="clip-path-6"><rect class="cls-1" x="44.58" y="3.19" width="58.83" height="117"/></clipPath><clipPath id="clip-path-7"><rect class="cls-1" x="1.81" y="2.78" width="102.39" height="117.81"/></clipPath></defs><title>Ratings Academy SVGs</title><g class="cls-2"><g class="cls-3"><path class="cls-4" d="M93.84,23.69A11.84,11.84,0,1,0,82,11.84,11.84,11.84,0,0,0,93.84,23.69"/><g class="cls-5"><g class="cls-6"><line class="cls-7" x1="94.5" y1="9.5" x2="94.5" y2="120.69"/></g></g><g class="cls-5"><g class="cls-8"><line class="cls-7" x1="136" y1="120.69" x2="94.5" y2="10.69"/></g></g><g class="cls-5"><g class="cls-9"><line class="cls-7" x1="177" y1="120.69" x2="94.5" y2="10"/></g></g><g class="cls-5"><g class="cls-10"><line class="cls-7" x1="55" y1="118.69" x2="93" y2="10.69"/></g></g><g class="cls-5"><g class="cls-11"><line class="cls-7" x1="12" y1="118.69" x2="94" y2="10.69"/></g></g></g><rect class="cls-4" x="164.79" y="105.89" width="23.8" height="23.8"/><polygon class="cls-4" points="11.2 105.89 0 129.69 23.8 129.69 35 105.89 11.2 105.89"/><rect class="cls-4" x="86.21" y="109.34" width="16.77" height="16.77" transform="translate(-55.54 101.37) rotate(-45)"/><polygon class="cls-4" points="40.12 129.59 67.48 129.59 53.8 105.89 40.12 129.59"/><polygon class="cls-4" points="122.13 105.89 135.63 129.59 149.12 105.89 122.13 105.89"/></g></svg>