<svg id="Layer_1" data-name="Layer 1" xmlns="http://www.w3.org/2000/svg" xmlns:xlink="http://www.w3.org/1999/xlink" viewBox="0 0 320.98 10.89"><defs><style>.cls-1{fill:none;}.cls-2{clip-path:url(#clip-path);}.cls-3{opacity:0.3;}.cls-4{clip-path:url(#clip-path-3);}.cls-5{fill:#d70036;}.cls-6{opacity:0.8;}.cls-7{clip-path:url(#clip-path-5);}.cls-8{opacity:0.6;}.cls-9{clip-path:url(#clip-path-6);}.cls-10{opacity:0.4;}.cls-11{clip-path:url(#clip-path-7);}.cls-12{opacity:0.9;}.cls-13{clip-path:url(#clip-path-8);}.cls-14{opacity:0.7;}.cls-15{clip-path:url(#clip-path-9);}.cls-16{opacity:0.5;}.cls-17{clip-path:url(#clip-path-10);}</style><clipPath id="clip-path"><rect class="cls-1" width="320.98" height="10.89"/></clipPath><clipPath id="clip-path-3"><rect class="cls-1" x="203.55" y="-7" width="126.43" height="18.89"/></clipPath><clipPath id="clip-path-5"><rect class="cls-1" x="55.4" y="-7" width="45.83" height="18.67"/></clipPath><clipPath id="clip-path-6"><rect class="cls-1" x="114.72" y="-7" width="45.83" height="18.67"/></clipPath><clipPath id="clip-path-7"><rect class="cls-1" x="174.01" y="-7" width="45.83" height="18.67"/></clipPath><clipPath id="clip-path-8"><rect class="cls-1" x="25.84" y="-6.96" width="45.83" height="18.67"/></clipPath><clipPath id="clip-path-9"><rect class="cls-1" x="85.15" y="-6.96" width="45.83" height="18.67"/></clipPath><clipPath id="clip-path-10"><rect class="cls-1" x="144.47" y="-6.96" width="45.83" height="18.67"/></clipPath></defs><title>Ratings Academy SVGs</title><g class="cls-2"><g class="cls-2"><g class="cls-3"><g class="cls-4"><polygon class="cls-5" points="212.55 0.04 212.55 10.89 315.4 10.89 320.98 5.44 315.31 0 212.55 0.04"/></g></g></g><rect class="cls-5" y="0.04" width="2.93" height="10.67"/><rect class="cls-5" x="5.08" width="27.83" height="10.67"/><g class="cls-2"><g class="cls-6"><g class="cls-7"><rect class="cls-5" x="64.4" width="27.83" height="10.67"/></g></g><g class="cls-8"><g class="cls-9"><rect class="cls-5" x="123.72" width="27.83" height="10.67"/></g></g><g class="cls-10"><g class="cls-11"><rect class="cls-5" x="183.01" width="27.83" height="10.67"/></g></g><g class="cls-12"><g class="cls-13"><rect class="cls-5" x="34.83" y="0.04" width="27.83" height="10.67"/></g></g><g class="cls-14"><g class="cls-15"><rect class="cls-5" x="94.15" y="0.04" width="27.83" height="10.67"/></g></g><g class="cls-16"><g class="cls-17"><rect class="cls-5" x="153.47" y="0.04" width="27.84" height="10.67"/></g></g></g></g></svg>