<svg id="Layer_1" data-name="Layer 1" xmlns="http://www.w3.org/2000/svg" viewBox="0 0 34.47 28.97"><defs><style>.cls-1{fill:#d70036;}.cls-2{fill:#fff;}</style></defs><title>Ratings Academy SVGs</title><path class="cls-1" d="M18,2.48A8.15,8.15,0,0,0,14.43,18l3.28,9.13a0.41,0.41,0,0,0,.29.27,0.41,0.41,0,0,0,.29-0.27L21.57,18A8.15,8.15,0,0,0,18,2.48Z"/><circle class="cls-2" cx="17.92" cy="10.66" r="6.47"/><rect class="cls-1" x="17.4" y="11.67" width="1.06" height="0.1" transform="translate(29.65 -6.2) rotate(90)"/><rect class="cls-1" x="17.4" y="11.67" width="1.06" height="0.1" transform="translate(35.85 23.44) rotate(180)"/><path class="cls-1" d="M20.05,5.4H15.69a0.7,0.7,0,0,0-.64.74V9.78a0.7,0.7,0,0,0,.64.74h4.37a0.7,0.7,0,0,0,.64-0.74V6.14A0.7,0.7,0,0,0,20.05,5.4ZM20.31,10H15.43V5.89h4.87V10Z"/><rect class="cls-1" x="15.74" y="7.93" width="4.23" height="0.09"/><rect class="cls-1" x="15.74" y="7.48" width="0.68" height="0.09"/><rect class="cls-1" x="16.97" y="7.48" width="3.01" height="0.09"/><rect class="cls-1" x="15.74" y="7.03" width="2.33" height="0.09"/><rect class="cls-1" x="19.06" y="7.03" width="0.88" height="0.09"/><rect class="cls-1" x="15.74" y="6.58" width="1.28" height="0.09"/><rect class="cls-1" x="17.4" y="6.58" width="0.8" height="0.09"/><rect class="cls-1" x="18.47" y="6.58" width="1.47" height="0.09"/><rect class="cls-1" x="15.74" y="6.14" width="3.45" height="0.09"/><rect class="cls-1" x="19.37" y="6.14" width="0.57" height="0.09"/><path class="cls-1" d="M20.85,13.64V13.12A0.12,0.12,0,0,0,20.76,13H15a0.12,0.12,0,0,0-.09.13v2a0.12,0.12,0,0,0,.09.13h5.72a0.12,0.12,0,0,0,.09-0.13V14"/><circle class="cls-2" cx="15.98" cy="13.95" r="0.13"/><circle class="cls-2" cx="16.79" cy="13.95" r="0.13"/><circle class="cls-2" cx="17.6" cy="13.95" r="0.13"/><circle class="cls-2" cx="15.98" cy="14.41" r="0.13"/><circle class="cls-2" cx="16.79" cy="14.41" r="0.13"/><circle class="cls-2" cx="17.6" cy="14.41" r="0.13"/><circle class="cls-2" cx="18.43" cy="13.95" r="0.13"/><circle class="cls-2" cx="19.24" cy="13.95" r="0.13"/><circle class="cls-2" cx="20.05" cy="13.95" r="0.13"/><circle class="cls-2" cx="18.43" cy="14.41" r="0.13"/><circle class="cls-2" cx="19.24" cy="14.41" r="0.13"/><circle class="cls-2" cx="20.05" cy="14.41" r="0.13"/></svg>