<svg id="Layer_1" data-name="Layer 1" xmlns="http://www.w3.org/2000/svg" viewBox="0 0 34.47 28.97"><defs><style>.cls-1{fill:#d70036;}.cls-2{fill:#fff;}</style></defs><title>Ratings Academy SVGs</title><path class="cls-1" d="M18,2.48A8.15,8.15,0,0,0,14.43,18l3.28,9.13a0.41,0.41,0,0,0,.29.27,0.41,0.41,0,0,0,.29-0.27L21.57,18A8.15,8.15,0,0,0,18,2.48Z"/><circle class="cls-2" cx="17.92" cy="10.66" r="6.47"/><path class="cls-1" d="M21.76,7.48H14.32a1,1,0,0,0-1.09.91v4.49a1,1,0,0,0,1.09.91h7.44a1,1,0,0,0,1.09-.91V8.39A1,1,0,0,0,21.76,7.48Zm0.43,5.65h-8.3v-5h8.3v5Z"/><path class="cls-1" d="M15.37,11.77V11.64a0,0,0,0,0,0,0H14.81a0,0,0,0,0,0,0v0.5a0,0,0,0,0,0,0h0.55a0,0,0,0,0,0,0V11.86"/><path class="cls-1" d="M16.35,11.77V11.64a0,0,0,0,0,0,0H15.8a0,0,0,0,0,0,0v0.5a0,0,0,0,0,0,0h0.55a0,0,0,0,0,0,0V11.86"/><path class="cls-1" d="M17.34,11.77V11.64a0,0,0,0,0,0,0H16.78a0,0,0,0,0,0,0v0.5a0,0,0,0,0,0,0h0.55a0,0,0,0,0,0,0V11.86"/><path class="cls-1" d="M18.33,11.77V11.64a0,0,0,0,0,0,0H17.77a0,0,0,0,0,0,0v0.5a0,0,0,0,0,0,0h0.55a0,0,0,0,0,0,0V11.86"/><path class="cls-1" d="M19.31,11.77V11.64a0,0,0,0,0,0,0H18.75a0,0,0,0,0,0,0v0.5a0,0,0,0,0,0,0H19.3a0,0,0,0,0,0,0V11.86"/><path class="cls-1" d="M20.3,11.77V11.64a0,0,0,0,0,0,0H19.74a0,0,0,0,0,0,0v0.5a0,0,0,0,0,0,0h0.55a0,0,0,0,0,0,0V11.86"/><path class="cls-1" d="M21.28,11.77V11.64a0,0,0,0,0,0,0H20.73a0,0,0,0,0,0,0v0.5a0,0,0,0,0,0,0h0.55a0,0,0,0,0,0,0V11.86"/><path class="cls-1" d="M15.37,10.46V10.33a0,0,0,0,0,0,0H14.81a0,0,0,0,0,0,0v0.5a0,0,0,0,0,0,0h0.55a0,0,0,0,0,0,0V10.55"/><path class="cls-1" d="M16.35,10.46V10.33a0,0,0,0,0,0,0H15.8a0,0,0,0,0,0,0v0.5a0,0,0,0,0,0,0h0.55a0,0,0,0,0,0,0V10.55"/><path class="cls-1" d="M20.3,10.46V10.33a0,0,0,0,0,0,0H19.74a0,0,0,0,0,0,0v0.5a0,0,0,0,0,0,0h0.55a0,0,0,0,0,0,0V10.55"/><path class="cls-1" d="M21.28,10.46V10.33a0,0,0,0,0,0,0H20.73a0,0,0,0,0,0,0v0.5a0,0,0,0,0,0,0h0.55a0,0,0,0,0,0,0V10.55"/></svg>