<svg id="Layer_1" data-name="Layer 1" xmlns="http://www.w3.org/2000/svg" viewBox="0 0 34.47 28.97"><defs><style>.cls-1{fill:#d70036;}.cls-2{fill:#fff;}</style></defs><title>Ratings Academy SVGs</title><path class="cls-1" d="M18,2.48A8.15,8.15,0,0,0,14.43,18l3.28,9.13a0.41,0.41,0,0,0,.29.27,0.41,0.41,0,0,0,.29-0.27L21.57,18A8.15,8.15,0,0,0,18,2.48Z"/><circle class="cls-2" cx="17.92" cy="10.66" r="6.47"/><path class="cls-1" d="M22.25,8.07a8.77,8.77,0,0,0-2-.27,6.61,6.61,0,0,0-2,.27,0.16,0.16,0,0,0-.1.14v5.36a0.08,0.08,0,0,0,.11.09,10.68,10.68,0,0,1,1.88-.23,15.18,15.18,0,0,1,2.08.23,0.09,0.09,0,0,0,.11-0.09V8.21A0.15,0.15,0,0,0,22.25,8.07ZM22,12.64s-1.07-.14-1.72-0.15a10.81,10.81,0,0,0-1.6.15h0a0,0,0,0,1,0-.09,10.82,10.82,0,0,1,1.62-.15c0.66,0,1.72.15,1.73,0.15A0,0,0,0,1,22,12.64Zm0-.73s-1.07-.14-1.72-0.15a10.89,10.89,0,0,0-1.6.15h0a0,0,0,0,1,0-.09,10.8,10.8,0,0,1,1.62-.15c0.66,0,1.72.15,1.73,0.15a0,0,0,0,1,0,.05A0,0,0,0,1,22,11.92Zm0-.73s-1.07-.14-1.72-0.15a10.82,10.82,0,0,0-1.6.15h0a0,0,0,0,1,0-.09,10.84,10.84,0,0,1,1.62-.15c0.66,0,1.72.15,1.73,0.15A0,0,0,0,1,22,11.19Zm0-.55s-1.07-.14-1.72-0.15a10.83,10.83,0,0,0-1.6.15h0a0,0,0,0,1,0-.09,10.74,10.74,0,0,1,1.62-.15c0.66,0,1.72.15,1.73,0.15A0,0,0,0,1,22,10.64Zm0-.73s-1.07-.14-1.72-0.15a10.78,10.78,0,0,0-1.6.15h0a0,0,0,0,1,0-.09,10.86,10.86,0,0,1,1.62-.15c0.66,0,1.72.15,1.73,0.15A0,0,0,0,1,22,9.91Zm0-.73S20.93,9,20.27,9a10.81,10.81,0,0,0-1.6.15h0a0,0,0,0,1,0-.09,10.86,10.86,0,0,1,1.62-.15C20.93,9,22,9.09,22,9.09A0,0,0,1,1,22,9.19Z"/><path class="cls-1" d="M13.65,8.21v5.36a0.09,0.09,0,0,0,.11.09,15.18,15.18,0,0,1,2.08-.23,10.68,10.68,0,0,1,1.88.23,0.08,0.08,0,0,0,.11-0.09V8.21a0.16,0.16,0,0,0-.1-0.14,6.61,6.61,0,0,0-2-.27,8.77,8.77,0,0,0-2,.27A0.15,0.15,0,0,0,13.65,8.21ZM14,12.6a0,0,0,0,1,0-.05s1.07-.14,1.73-0.15a10.82,10.82,0,0,1,1.62.15,0,0,0,0,1,0,.09h0a10.81,10.81,0,0,0-1.6-.15c-0.65,0-1.71.15-1.72,0.15A0,0,0,0,1,14,12.6Zm0-.73a0,0,0,0,1,0-.05s1.07-.14,1.73-0.15a10.8,10.8,0,0,1,1.62.15,0,0,0,0,1,0,.09h0a10.89,10.89,0,0,0-1.6-.15c-0.65,0-1.71.15-1.72,0.15A0,0,0,0,1,14,11.87Zm0-.73a0,0,0,0,1,0-.05s1.07-.14,1.73-0.15a10.84,10.84,0,0,1,1.62.15,0,0,0,0,1,0,.09h0a10.82,10.82,0,0,0-1.6-.15c-0.65,0-1.71.15-1.72,0.15A0,0,0,0,1,14,11.15Zm0-.55a0,0,0,0,1,0-.05s1.07-.14,1.73-0.15a10.74,10.74,0,0,1,1.62.15,0,0,0,0,1,0,.09h0a10.83,10.83,0,0,0-1.6-.15c-0.65,0-1.71.15-1.72,0.15A0,0,0,0,1,14,10.6Zm0-.73a0,0,0,0,1,0-.05s1.07-.14,1.73-0.15a10.86,10.86,0,0,1,1.62.15,0,0,0,0,1,0,.09h0a10.78,10.78,0,0,0-1.6-.15c-0.65,0-1.71.15-1.72,0.15A0,0,0,0,1,14,9.87Zm0-.73a0,0,0,0,1,0-.05S15.07,9,15.72,8.94a10.86,10.86,0,0,1,1.62.15,0,0,0,0,1,0,.09h0A10.81,10.81,0,0,0,15.73,9C15.07,9,14,9.18,14,9.19A0,0,0,0,1,14,9.15Z"/></svg>