<svg id="Layer_1" data-name="Layer 1" xmlns="http://www.w3.org/2000/svg" xmlns:xlink="http://www.w3.org/1999/xlink" viewBox="0 0 572.1 251.78"><defs><style>.cls-1,.cls-4{fill:none;}.cls-2{clip-path:url(#clip-path);}.cls-3{fill:#d70036;}.cls-4{stroke:#d70036;stroke-width:0.97px;}</style><clipPath id="clip-path"><rect class="cls-1" width="572.1" height="251.78"/></clipPath></defs><title>Ratings Academy SVGs</title><g class="cls-2"><path class="cls-3" d="M42.94,147.23c-2.75-10,2-14,7.24-16.66,5.45-2.7,11-5.46,11-14H57.91c0,6.49-4.63,8.8-9.18,11-6.43,3.19-12.26,7.75-9.19,19.63Z"/><path class="cls-3" d="M58.23,116.9c-0.13,6.46-4.82,8.77-9.35,11-6.41,3.18-11.93,7.68-9.08,19l2.74,0c-2.61-10.06,2.32-14,7.51-16.63s10.7-5.3,10.82-13.4H58.23ZM39.55,147.57a0.31,0.31,0,0,1-.31-0.24c-3.1-12,2.66-16.67,9.35-20,4.44-2.19,9-4.46,9-10.76a0.31,0.31,0,0,1,.31-0.32h3.27a0.3,0.3,0,0,1,.22.09,0.32,0.32,0,0,1,.09.22c0,8.74-5.67,11.55-11.17,14.28-5,2.5-9.8,6.39-7.08,16.29a0.32,0.32,0,0,1-.05.27,0.31,0.31,0,0,1-.25.12l-3.4,0h0Z"/><path class="cls-3" d="M64.24,170.74a6.12,6.12,0,1,1,6.17-6.12,6.14,6.14,0,0,1-6.17,6.12m-35.89-4.43a3.76,3.76,0,1,1,3.75-3.79,3.78,3.78,0,0,1-3.75,3.79m-8.26,8.33a3.76,3.76,0,1,1,3.76-3.79,3.77,3.77,0,0,1-3.76,3.79m-0.22-24a3.75,3.75,0,1,1-3.75,3.79,3.78,3.78,0,0,1,3.75-3.79m-8.19,15.85a3.75,3.75,0,1,1,3.75-3.79,3.78,3.78,0,0,1-3.75,3.79m64.94-8.62c-1.28-4.89-3.71-10.4-8.45-11.73-10.24-2.89-20.05,6.63-20.05,6.63H32.62s-4.78-10.91-19.32-5.14c-3.31,1.31-5.85,4.71-7.53,9.26-3.24,12.93-6.9,26.5-5.43,39.33,0.6,5.21,6.47,6.8,11.38,4.15a101.85,101.85,0,0,0,13-15.19H56.64c3.52,4.81,8,10.93,13.27,15.72,5,2.56,10.44,1.18,11.3-4.35,2-12.76-1.21-25.77-4.59-38.66"/><path class="cls-3" d="M408.85,29.14c-0.12,0-12.22-1.58-19.69-1.71s-18.2,1.69-18.31,1.71h-0.09a0.54,0.54,0,0,1-.09-1.08c0.11,0,11-1.86,18.52-1.73s19.69,1.71,19.81,1.72a0.54,0.54,0,1,1-.14,1.07m0,8.3c-0.12,0-12.22-1.58-19.69-1.71s-18.2,1.69-18.31,1.71h-0.09a0.54,0.54,0,0,1-.09-1.08c0.11,0,11-1.86,18.52-1.73s19.69,1.71,19.81,1.72a0.54,0.54,0,1,1-.14,1.07m0,8.3c-0.12,0-12.22-1.58-19.69-1.71s-18.2,1.69-18.31,1.71h-0.09a0.54,0.54,0,0,1-.09-1.07c0.11,0,11-1.87,18.52-1.73s19.69,1.71,19.81,1.72a0.54,0.54,0,1,1-.14,1.07m0,6.3c-0.12,0-12.22-1.58-19.69-1.71S371,52,370.85,52h-0.09a0.54,0.54,0,0,1-.09-1.08c0.11,0,11-1.87,18.52-1.72S408.87,51,409,51a0.54,0.54,0,0,1,.47.61,0.54,0.54,0,0,1-.61.47m0,8.3c-0.12,0-12.22-1.58-19.69-1.71s-18.2,1.69-18.31,1.71h-0.09a0.54,0.54,0,0,1-.09-1.08c0.11,0,11-1.87,18.52-1.73s19.69,1.71,19.81,1.72a0.55,0.55,0,0,1,.47.61,0.54,0.54,0,0,1-.61.47m0,8.3c-0.12,0-12.22-1.58-19.69-1.71s-18.2,1.69-18.31,1.71h-0.09a0.54,0.54,0,0,1-.09-1.08c0.11,0,11-1.87,18.52-1.73s19.69,1.71,19.81,1.72a0.54,0.54,0,1,1-.14,1.07m2.88-52.21a100.29,100.29,0,0,0-22.66-3.1,75.54,75.54,0,0,0-22.68,3A1.84,1.84,0,0,0,365.22,18V79.27a1,1,0,0,0,1.21,1s12-2.6,21.5-2.6c9.16,0,23.78,2.64,23.78,2.64a1,1,0,0,0,1.22-1V18a1.73,1.73,0,0,0-1.19-1.57"/><path class="cls-3" d="M505,99.27a3.54,3.54,0,1,1,3.54-3.54A3.54,3.54,0,0,1,505,99.27m-12.38,0a3.54,3.54,0,1,1,3.54-3.54,3.54,3.54,0,0,1-3.54,3.54m-26.17,0a18.75,18.75,0,1,1,18.75-18.75,18.75,18.75,0,0,1-18.75,18.75M512.61,55.4h-9.53v-6a3.18,3.18,0,1,0-1.59,0v6H440a0.64,0.64,0,0,0-.62.66v48.41a0.64,0.64,0,0,0,.62.65h72.62a0.64,0.64,0,0,0,.62-0.65V56.05a0.64,0.64,0,0,0-.62-0.66"/><path class="cls-3" d="M83,20.81a2.56,2.56,0,0,0-2.56-2.56H45.76a2.57,2.57,0,0,0-2.56,2.56V64a14.61,14.61,0,0,0-4.38-.67c-5.76,0-10.43,3.16-10.43,7.05S33,77.43,38.81,77.43c5.41,0,9.81-2.79,10.33-6.36h0.1V30.3H76.92V59.24a14.68,14.68,0,0,0-4.39-.67c-5.76,0-10.43,3.16-10.43,7.06s4.68,7.06,10.43,7.06S83,69.52,83,65.63c0,0,0-.08,0-0.12h0V32.39c0-.06,0-0.1,0-0.16V20.81Z"/><path class="cls-3" d="M186.4,208.7a6.42,6.42,0,1,1,6.42-6.42,6.43,6.43,0,0,1-6.42,6.42m-23.32,0a6.42,6.42,0,1,1,6.42-6.42,6.42,6.42,0,0,1-6.42,6.42m-23.32,0a6.42,6.42,0,1,1,6.42-6.42,6.43,6.43,0,0,1-6.42,6.42m-21.29-35.13a1.52,1.52,0,0,0-1.52,1.52v54.86a1.52,1.52,0,0,0,1.52,1.52h10.35a1.53,1.53,0,0,1,1.52,1.52v16.52c0,0.84.54,1.11,1.21,0.6l23.27-17.72a5.28,5.28,0,0,1,2.73-.92h50.13a1.52,1.52,0,0,0,1.52-1.52V175.09a1.52,1.52,0,0,0-1.52-1.52H118.47Z"/><path class="cls-3" d="M258.76,110.9a6.1,6.1,0,1,0,6.1,6.1,6.11,6.11,0,0,0-6.1-6.1"/><path class="cls-3" d="M285.33,0H110.11a4.05,4.05,0,0,0-4,4V114.37a4,4,0,0,0,4,4H245.6a1.75,1.75,0,1,0,0-3.5H110.11a0.55,0.55,0,0,1-.54-0.54V4a0.55,0.55,0,0,1,.54-0.54H285.33a0.55,0.55,0,0,1,.54.54V114.37a0.55,0.55,0,0,1-.54.54H272.19a1.75,1.75,0,0,0,0,3.5h13.14a4,4,0,0,0,4-4V4a4,4,0,0,0-4-4"/><path class="cls-3" d="M183.55,123.8H211.9a1.14,1.14,0,0,1,1.14,1.14v3.65a1.15,1.15,0,0,1-1.15,1.15H183.55a1.14,1.14,0,0,1-1.14-1.14v-3.65A1.14,1.14,0,0,1,183.55,123.8Z"/><path class="cls-3" d="M227.21,134.59h-59a1.15,1.15,0,0,0-1.15,1.15v3.65a1.15,1.15,0,0,0,1.15,1.15h59a1.15,1.15,0,0,0,1.15-1.15v-3.65a1.15,1.15,0,0,0-1.15-1.15"/><path class="cls-3" d="M274.11,100.84V17.58a2.3,2.3,0,0,0-2.29-2.29H123.62a2.3,2.3,0,0,0-2.29,2.29v83.27a2.3,2.3,0,0,0,2.29,2.29h148.2a2.3,2.3,0,0,0,2.29-2.29"/><path class="cls-3" d="M349.49,191.35a3,3,0,1,1,3,3,3,3,0,0,1-3-3"/><path class="cls-3" d="M318.27,198.56H386.7V111.73H318.27v86.83Zm68.41,1.79H318.3a1.74,1.74,0,0,1-1.82-1.64V111.58a1.74,1.74,0,0,1,1.82-1.64h68.38a1.74,1.74,0,0,1,1.82,1.64v87.13a1.74,1.74,0,0,1-1.82,1.64"/><path class="cls-3" d="M378.5,177.13V121.44a0.62,0.62,0,0,0-.68-0.51H327.26a0.62,0.62,0,0,0-.68.51V181.1a0.62,0.62,0,0,0,.68.51h50.56a0.62,0.62,0,0,0,.68-0.51v-4.67"/><path class="cls-3" d="M477.34,138.32a4.17,4.17,0,1,1,4.18,4.17,4.18,4.18,0,0,1-4.18-4.17"/><rect class="cls-3" x="432.08" y="149.22" width="99.09" height="56.98" rx="2.04" ry="2.04"/><path class="cls-3" d="M541,218.52H422.25a3.65,3.65,0,0,1-3.65-3.65V140.54a3.65,3.65,0,0,1,3.65-3.65h49.63a1.49,1.49,0,0,1,0,3H422.25a0.67,0.67,0,0,0-.66.66v74.33a0.67,0.67,0,0,0,.66.66H541a0.67,0.67,0,0,0,.65-0.66V140.54a0.66,0.66,0,0,0-.65-0.66H491.31a1.5,1.5,0,0,1,0-3H541a3.65,3.65,0,0,1,3.64,3.65v74.33a3.65,3.65,0,0,1-3.64,3.65"/><path class="cls-3" d="M440.07,231.85c0,1-1.82,1.84-4.06,1.84s-4.06-.83-4.06-1.84S433.77,230,436,230s4.06,0.83,4.06,1.84"/><path class="cls-3" d="M426.82,231.85c0,1-1.81,1.84-4.06,1.84s-4.06-.83-4.06-1.84,1.81-1.84,4.06-1.84,4.06,0.83,4.06,1.84"/><path class="cls-3" d="M418.88,238.31c0,1-1.82,1.84-4.06,1.84s-4.06-.82-4.06-1.84,1.82-1.84,4.06-1.84,4.06,0.83,4.06,1.84"/><path class="cls-3" d="M453.32,231.85c0,1-1.81,1.84-4.05,1.84s-4.06-.83-4.06-1.84S447,230,449.27,230s4.05,0.83,4.05,1.84"/><path class="cls-3" d="M466.58,231.85c0,1-1.82,1.84-4.06,1.84s-4.07-.83-4.07-1.84,1.83-1.84,4.07-1.84,4.06,0.83,4.06,1.84"/><path class="cls-3" d="M479.83,231.85c0,1-1.82,1.84-4.06,1.84s-4.06-.83-4.06-1.84,1.82-1.84,4.06-1.84,4.06,0.83,4.06,1.84"/><path class="cls-3" d="M493.09,231.85c0,1-1.82,1.84-4.07,1.84s-4.06-.83-4.06-1.84S486.79,230,489,230s4.07,0.83,4.07,1.84"/><path class="cls-3" d="M506.34,231.85c0,1-1.82,1.84-4.06,1.84s-4.06-.83-4.06-1.84S500,230,502.28,230s4.06,0.83,4.06,1.84"/><path class="cls-3" d="M519.6,231.85c0,1-1.82,1.84-4.06,1.84s-4.06-.83-4.06-1.84,1.82-1.84,4.06-1.84,4.06,0.83,4.06,1.84"/><path class="cls-3" d="M532.85,231.85c0,1-1.82,1.84-4.06,1.84s-4.05-.83-4.05-1.84,1.82-1.84,4.05-1.84,4.06,0.83,4.06,1.84"/><path class="cls-3" d="M546.11,231.85c0,1-1.82,1.84-4.06,1.84s-4.06-.83-4.06-1.84S539.81,230,542,230s4.06,0.83,4.06,1.84"/><path class="cls-3" d="M554,238.31c0,1-1.81,1.84-4.06,1.84s-4.06-.82-4.06-1.84,1.82-1.84,4.06-1.84,4.06,0.83,4.06,1.84"/><path class="cls-3" d="M433.62,225.33c0,1-1.82,1.84-4.06,1.84s-4.06-.83-4.06-1.84,1.82-1.84,4.06-1.84,4.06,0.82,4.06,1.84"/><path class="cls-3" d="M446.87,225.33c0,1-1.82,1.84-4.06,1.84s-4.06-.83-4.06-1.84,1.82-1.84,4.06-1.84,4.06,0.82,4.06,1.84"/><path class="cls-3" d="M460.13,225.33c0,1-1.81,1.84-4.06,1.84s-4.06-.83-4.06-1.84,1.82-1.84,4.06-1.84,4.06,0.82,4.06,1.84"/><path class="cls-3" d="M473.38,225.33c0,1-1.82,1.84-4.06,1.84s-4.06-.83-4.06-1.84,1.82-1.84,4.06-1.84,4.06,0.82,4.06,1.84"/><path class="cls-3" d="M486.63,225.33c0,1-1.82,1.84-4.06,1.84s-4.05-.83-4.05-1.84,1.81-1.84,4.05-1.84,4.06,0.82,4.06,1.84"/><path class="cls-3" d="M499.89,225.33c0,1-1.82,1.84-4.06,1.84s-4.07-.83-4.07-1.84,1.82-1.84,4.07-1.84,4.06,0.82,4.06,1.84"/><path class="cls-3" d="M513.14,225.33c0,1-1.81,1.84-4.06,1.84s-4.06-.83-4.06-1.84,1.82-1.84,4.06-1.84,4.06,0.82,4.06,1.84"/><path class="cls-3" d="M526.39,225.33c0,1-1.81,1.84-4.06,1.84s-4.06-.83-4.06-1.84,1.81-1.84,4.06-1.84,4.06,0.82,4.06,1.84"/><path class="cls-3" d="M539.65,225.33c0,1-1.83,1.84-4.06,1.84s-4.06-.83-4.06-1.84,1.82-1.84,4.06-1.84,4.06,0.82,4.06,1.84"/><path class="cls-3" d="M432.4,238.31c0,1-1.82,1.84-4.05,1.84s-4.07-.82-4.07-1.84,1.82-1.84,4.07-1.84,4.05,0.83,4.05,1.84"/><path class="cls-3" d="M445.91,238.31c0,1-1.81,1.84-4.06,1.84s-4.06-.82-4.06-1.84,1.82-1.84,4.06-1.84,4.06,0.83,4.06,1.84"/><path class="cls-3" d="M459.43,238.31c0,1-1.82,1.84-4.06,1.84s-4.06-.82-4.06-1.84,1.82-1.84,4.06-1.84,4.06,0.83,4.06,1.84"/><path class="cls-3" d="M472.95,238.31c0,1-1.82,1.84-4.06,1.84s-4.07-.82-4.07-1.84,1.82-1.84,4.07-1.84,4.06,0.83,4.06,1.84"/><path class="cls-3" d="M486.46,238.31c0,1-1.81,1.84-4.06,1.84s-4.06-.82-4.06-1.84,1.81-1.84,4.06-1.84,4.06,0.83,4.06,1.84"/><path class="cls-3" d="M500,238.31c0,1-1.82,1.84-4.07,1.84s-4.06-.82-4.06-1.84,1.82-1.84,4.06-1.84,4.07,0.83,4.07,1.84"/><path class="cls-3" d="M513.49,238.31c0,1-1.81,1.84-4.05,1.84s-4.06-.82-4.06-1.84,1.82-1.84,4.06-1.84,4.05,0.83,4.05,1.84"/><path class="cls-3" d="M527,238.31c0,1-1.82,1.84-4.07,1.84s-4.06-.82-4.06-1.84,1.82-1.84,4.06-1.84,4.07,0.83,4.07,1.84"/><path class="cls-3" d="M540.52,238.31c0,1-1.82,1.84-4.06,1.84s-4.06-.82-4.06-1.84,1.82-1.84,4.06-1.84,4.06,0.83,4.06,1.84"/><path class="cls-3" d="M395.83,248.47h172l-24-28.73a3.08,3.08,0,0,0-1.87-.87H421.71a3.07,3.07,0,0,0-1.86.87Zm173.58,3.31H394.2a2.43,2.43,0,0,1-1.95-4.17l25.07-30a6.3,6.3,0,0,1,4.39-2.06H541.89a6.31,6.31,0,0,1,4.4,2.06l25.07,30a2.43,2.43,0,0,1-2,4.17"/><path class="cls-3" d="M249.32,243h39.86V178.73H249.32V243Zm39.85,1.33H249.34a1.15,1.15,0,0,1-1.06-1.21V178.62a1.15,1.15,0,0,1,1.06-1.22h39.83a1.15,1.15,0,0,1,1.06,1.22v64.54a1.15,1.15,0,0,1-1.06,1.21"/><path class="cls-4" d="M249.32,243h39.86V178.73H249.32V243Zm39.85,1.33H249.34a1.15,1.15,0,0,1-1.06-1.21V178.62a1.15,1.15,0,0,1,1.06-1.22h39.83a1.15,1.15,0,0,1,1.06,1.22v64.54A1.15,1.15,0,0,1,289.17,244.37Z"/><path class="cls-3" d="M282.53,222V185.87a0.34,0.34,0,0,0-.35-0.33H256.39a0.34,0.34,0,0,0-.35.33V224.6a0.34,0.34,0,0,0,.35.33h25.79a0.34,0.34,0,0,0,.35-0.33v-3"/><path class="cls-4" d="M282.53,222V185.87a0.34,0.34,0,0,0-.35-0.33H256.39a0.34,0.34,0,0,0-.35.33V224.6a0.34,0.34,0,0,0,.35.33h25.79a0.34,0.34,0,0,0,.35-0.33v-3"/><path class="cls-3" d="M266.28,235.22a3.21,3.21,0,1,1,3.21,3.21,3.21,3.21,0,0,1-3.21-3.21"/><circle class="cls-4" cx="269.49" cy="235.22" r="3.21"/><path class="cls-3" d="M361.76,16.38a75.54,75.54,0,0,0-22.68-3,100.34,100.34,0,0,0-22.66,3.1A1.73,1.73,0,0,0,315.22,18V79.27a1,1,0,0,0,1.22,1s14.62-2.64,23.78-2.64c9.54,0,21.5,2.6,21.5,2.6a1,1,0,0,0,1.21-1V18A1.84,1.84,0,0,0,361.76,16.38Zm-2.91,52.27c-0.12,0-12.22-1.58-19.69-1.71S321,68.63,320.85,68.64h-0.09a0.54,0.54,0,0,1-.09-1.08c0.11,0,11-1.87,18.52-1.73s19.69,1.71,19.81,1.72A0.54,0.54,0,1,1,358.85,68.65Zm0-8.3c-0.12,0-12.22-1.58-19.69-1.71S321,60.33,320.85,60.34h-0.09a0.54,0.54,0,0,1-.09-1.08c0.11,0,11-1.87,18.52-1.73s19.69,1.71,19.81,1.72A0.54,0.54,0,0,1,358.85,60.35Zm0-8.3c-0.12,0-12.22-1.58-19.69-1.71S321,52,320.85,52h-0.09a0.54,0.54,0,0,1-.09-1.08c0.11,0,11-1.87,18.52-1.72S358.87,51,359,51A0.54,0.54,0,1,1,358.85,52Zm0-6.29c-0.12,0-12.22-1.58-19.69-1.71S321,45.74,320.85,45.75h-0.09a0.54,0.54,0,0,1-.09-1.08c0.11,0,11-1.87,18.52-1.73s19.69,1.71,19.81,1.72A0.54,0.54,0,1,1,358.85,45.76Zm0-8.3c-0.12,0-12.22-1.58-19.69-1.71S321,37.44,320.85,37.45h-0.09a0.54,0.54,0,0,1-.09-1.08c0.11,0,11-1.87,18.52-1.73s19.69,1.71,19.81,1.72A0.54,0.54,0,0,1,358.85,37.46Zm0-8.3c-0.12,0-12.22-1.58-19.69-1.71S321,29.13,320.85,29.15h-0.09a0.54,0.54,0,0,1-.09-1.08c0.11,0,11-1.87,18.52-1.72s19.69,1.71,19.81,1.72A0.54,0.54,0,1,1,358.85,29.16Z"/></g></svg>