<svg id="Layer_1" data-name="Layer 1" xmlns="http://www.w3.org/2000/svg" viewBox="0 0 34.47 28.97"><defs><style>.cls-1{fill:#d70036;}.cls-2{fill:#fff;}</style></defs><title>Ratings Academy SVGs</title><circle class="cls-1" cx="17.7" cy="14.61" r="7.92"/><path class="cls-1" d="M17.77,9A5.59,5.59,0,0,0,15.32,19.6l2.25,6.26a0.2,0.2,0,0,0,.39,0l2.25-6.26A5.59,5.59,0,0,0,17.77,9Z"/><path class="cls-1" d="M23.36,14.58a5.59,5.59,0,0,0-10.61-2.45L6.48,14.38a0.2,0.2,0,0,0,0,.39L12.74,17A5.59,5.59,0,0,0,23.36,14.58Z"/><path class="cls-1" d="M17.77,20.17A5.59,5.59,0,0,0,20.22,9.55L18,3.29a0.2,0.2,0,0,0-.39,0L15.32,9.55A5.59,5.59,0,0,0,17.77,20.17Z"/><path class="cls-1" d="M12.18,14.58A5.59,5.59,0,0,0,22.79,17l6.26-2.25a0.2,0.2,0,0,0,0-.39l-6.26-2.25A5.59,5.59,0,0,0,12.18,14.58Z"/><circle class="cls-2" cx="17.7" cy="14.61" r="6.29"/><path class="cls-1" d="M18.9,18.95H16.84a1.43,1.43,0,0,1-1.43-1.43V11.84a1.43,1.43,0,0,1,1.43-1.43H18.9a1.43,1.43,0,0,1,1.43,1.43v5.68a1.43,1.43,0,0,1-1.43,1.43h0Zm-2.06-8.35a1.25,1.25,0,0,0-1.24,1.24v5.68a1.25,1.25,0,0,0,1.24,1.24H18.9a1.25,1.25,0,0,0,1.24-1.24V11.84a1.25,1.25,0,0,0-1.24-1.24H16.84Z"/><rect class="cls-1" x="16.2" y="11.91" width="3.34" height="4.9" rx="0.1" ry="0.1"/><path class="cls-1" d="M18.32,11.24h-0.9a0.09,0.09,0,0,1,0-.19h0.9a0.09,0.09,0,1,1,0,.19h0Z"/><circle class="cls-1" cx="17.87" cy="17.83" r="0.21"/><circle class="cls-1" cx="18.78" cy="17.83" r="0.21"/><circle class="cls-1" cx="16.97" cy="17.83" r="0.21"/><circle class="cls-2" cx="17.85" cy="14.93" r="0.24" transform="translate(-5.33 17) rotate(-45)"/><path class="cls-2" d="M18.69,14.25h0a0.11,0.11,0,0,1-.15,0A0.92,0.92,0,0,0,17.85,14a1,1,0,0,0-.67.29A0.11,0.11,0,0,1,17,14.11a1.21,1.21,0,0,1,.81-0.36,1.12,1.12,0,0,1,.86.36,0.11,0.11,0,0,1,0,.14h0Z"/><path class="cls-2" d="M17.84,14.23a0.72,0.72,0,0,0-.48.22,0.11,0.11,0,1,0,.16.14,0.52,0.52,0,0,1,.33-0.15,0.45,0.45,0,0,1,.34.15h0a0.11,0.11,0,0,0,.15,0,0.11,0.11,0,0,0,0-.15A0.66,0.66,0,0,0,17.84,14.23Z"/></svg>