<svg id="Layer_1" data-name="Layer 1" xmlns="http://www.w3.org/2000/svg" viewBox="0 0 34.47 28.97"><defs><style>.cls-1{fill:#d70036;}.cls-2{fill:#fff;}</style></defs><title>Ratings Academy SVGs</title><path class="cls-1" d="M20.43,27H14.5a4.12,4.12,0,0,1-4.12-4.12V6.56A4.12,4.12,0,0,1,14.5,2.44h5.94a4.12,4.12,0,0,1,4.12,4.12V22.93A4.12,4.12,0,0,1,20.43,27h0ZM14.5,3a3.59,3.59,0,0,0-3.58,3.58V22.93a3.59,3.59,0,0,0,3.58,3.58h5.94A3.59,3.59,0,0,0,24,22.93V6.56A3.59,3.59,0,0,0,20.43,3H14.5Z"/><rect class="cls-1" x="12.65" y="6.77" width="9.63" height="14.11" rx="0.28" ry="0.28"/><path class="cls-1" d="M18.76,4.85h-2.6a0.27,0.27,0,0,1,0-.53h2.6a0.27,0.27,0,1,1,0,.53h0Z"/><circle class="cls-1" cx="17.46" cy="23.84" r="0.61"/><circle class="cls-1" cx="20.07" cy="23.84" r="0.61"/><circle class="cls-1" cx="14.86" cy="23.84" r="0.61"/><circle class="cls-2" cx="17.41" cy="15.47" r="0.7" transform="translate(-5.84 16.84) rotate(-45)"/><path class="cls-2" d="M19.82,13.52l0,0a0.31,0.31,0,0,1-.43,0,2.65,2.65,0,0,0-2-.83,2.92,2.92,0,0,0-1.92.84A0.31,0.31,0,0,1,15,13.1a3.48,3.48,0,0,1,2.35-1,3.22,3.22,0,0,1,2.48,1,0.31,0.31,0,0,1,0,.41h0Z"/><path class="cls-2" d="M17.38,13.45a2.09,2.09,0,0,0-1.39.63,0.31,0.31,0,1,0,.46.4,1.49,1.49,0,0,1,1-.42,1.29,1.29,0,0,1,1,.42h0a0.32,0.32,0,0,0,.44,0,0.31,0.31,0,0,0,0-.42A1.91,1.91,0,0,0,17.38,13.45Z"/></svg>