<svg id="Layer_1" data-name="Layer 1" xmlns="http://www.w3.org/2000/svg" viewBox="0 0 34.47 28.97"><defs><style>.cls-1{fill:#d70036;}.cls-2{fill:#fff;}</style></defs><title>Ratings Academy SVGs</title><circle class="cls-1" cx="17.46" cy="14.57" r="7.92"/><path class="cls-1" d="M17.53,9a5.59,5.59,0,0,0-2.45,10.61l2.25,6.26a0.2,0.2,0,0,0,.39,0L20,19.57A5.59,5.59,0,0,0,17.53,9Z"/><path class="cls-1" d="M23.11,14.54A5.59,5.59,0,0,0,12.5,12.1L6.24,14.35a0.2,0.2,0,0,0,0,.39L12.5,17A5.59,5.59,0,0,0,23.11,14.54Z"/><path class="cls-1" d="M17.52,20.13A5.59,5.59,0,0,0,20,9.52L17.72,3.26a0.2,0.2,0,0,0-.39,0L15.08,9.52A5.59,5.59,0,0,0,17.52,20.13Z"/><path class="cls-1" d="M11.94,14.54A5.59,5.59,0,0,0,22.55,17l6.26-2.25a0.2,0.2,0,0,0,0-.39l-6.26-2.25A5.59,5.59,0,0,0,11.94,14.54Z"/><circle class="cls-2" cx="17.46" cy="14.57" r="6.29"/><path class="cls-1" d="M21.29,11.39H13.85a1,1,0,0,0-1.09.91V16.8a1,1,0,0,0,1.09.91h7.44a1,1,0,0,0,1.09-.91V12.31A1,1,0,0,0,21.29,11.39ZM21.72,17h-8.3V12h8.3v5Z"/><path class="cls-1" d="M14.9,15.69V15.56a0,0,0,0,0,0,0H14.34a0,0,0,0,0,0,0v0.5a0,0,0,0,0,0,0h0.55a0,0,0,0,0,0,0V15.78"/><path class="cls-1" d="M15.88,15.69V15.56a0,0,0,0,0,0,0H15.32a0,0,0,0,0,0,0v0.5a0,0,0,0,0,0,0h0.55a0,0,0,0,0,0,0V15.78"/><path class="cls-1" d="M16.87,15.69V15.56a0,0,0,0,0,0,0H16.31a0,0,0,0,0,0,0v0.5a0,0,0,0,0,0,0h0.55a0,0,0,0,0,0,0V15.78"/><path class="cls-1" d="M17.85,15.69V15.56a0,0,0,0,0,0,0H17.3a0,0,0,0,0,0,0v0.5a0,0,0,0,0,0,0h0.55a0,0,0,0,0,0,0V15.78"/><path class="cls-1" d="M18.84,15.69V15.56a0,0,0,0,0,0,0H18.28a0,0,0,0,0,0,0v0.5a0,0,0,0,0,0,0h0.55a0,0,0,0,0,0,0V15.78"/><path class="cls-1" d="M19.83,15.69V15.56a0,0,0,0,0,0,0H19.27a0,0,0,0,0,0,0v0.5a0,0,0,0,0,0,0h0.55a0,0,0,0,0,0,0V15.78"/><path class="cls-1" d="M20.81,15.69V15.56a0,0,0,0,0,0,0H20.25a0,0,0,0,0,0,0v0.5a0,0,0,0,0,0,0H20.8a0,0,0,0,0,0,0V15.78"/><path class="cls-1" d="M14.9,14.37V14.24a0,0,0,0,0,0,0H14.34a0,0,0,0,0,0,0v0.5a0,0,0,0,0,0,0h0.55a0,0,0,0,0,0,0V14.46"/><path class="cls-1" d="M15.88,14.37V14.24a0,0,0,0,0,0,0H15.32a0,0,0,0,0,0,0v0.5a0,0,0,0,0,0,0h0.55a0,0,0,0,0,0,0V14.46"/><path class="cls-1" d="M19.83,14.37V14.24a0,0,0,0,0,0,0H19.27a0,0,0,0,0,0,0v0.5a0,0,0,0,0,0,0h0.55a0,0,0,0,0,0,0V14.46"/><path class="cls-1" d="M20.81,14.37V14.24a0,0,0,0,0,0,0H20.25a0,0,0,0,0,0,0v0.5a0,0,0,0,0,0,0H20.8a0,0,0,0,0,0,0V14.46"/></svg>