<svg id="Layer_1" data-name="Layer 1" xmlns="http://www.w3.org/2000/svg" viewBox="0 0 34.47 28.97"><defs><style>.cls-1{fill:#d70036;}.cls-2{fill:#fff;}</style></defs><title>Ratings Academy SVGs</title><circle class="cls-1" cx="17.39" cy="14.61" r="7.92"/><path class="cls-1" d="M17.46,9A5.59,5.59,0,0,0,15,19.6l2.25,6.26a0.2,0.2,0,0,0,.39,0L19.9,19.6A5.59,5.59,0,0,0,17.46,9Z"/><path class="cls-1" d="M23,14.58a5.59,5.59,0,0,0-10.61-2.45L6.17,14.38a0.2,0.2,0,0,0,0,.39L12.43,17A5.59,5.59,0,0,0,23,14.58Z"/><path class="cls-1" d="M17.45,20.17A5.59,5.59,0,0,0,19.9,9.55L17.65,3.29a0.2,0.2,0,0,0-.39,0L15,9.55A5.59,5.59,0,0,0,17.45,20.17Z"/><path class="cls-1" d="M11.87,14.58A5.59,5.59,0,0,0,22.48,17l6.26-2.25a0.2,0.2,0,0,0,0-.39l-6.26-2.25A5.59,5.59,0,0,0,11.87,14.58Z"/><circle class="cls-2" cx="17.39" cy="14.61" r="6.29"/><circle class="cls-1" cx="17.7" cy="12.06" r="0.2"/><rect class="cls-1" x="15.31" y="12.59" width="4.79" height="2.75" rx="0.1" ry="0.1"/><path class="cls-1" d="M13.61,15.68a0,0,0,0,1,0-.05v-2.4a0,0,0,0,1,0-.05h0.75a0,0,0,0,1,0,.05v2.4a0,0,0,0,1,0,.05H13.61Z"/><path class="cls-1" d="M20.57,15.94H14.84a0.18,0.18,0,0,1-.18-0.18V12.17A0.18,0.18,0,0,1,14.84,12h2.4a0.07,0.07,0,0,1,0,.14h-2.4a0,0,0,0,0,0,0v3.59a0,0,0,0,0,0,0h5.74a0,0,0,0,0,0,0V12.17a0,0,0,0,0,0,0h-2.4a0.07,0.07,0,0,1,0-.14h2.4a0.18,0.18,0,0,1,.18.18v3.59a0.18,0.18,0,0,1-.18.18h0Z"/><ellipse class="cls-1" cx="15.5" cy="16.58" rx="0.2" ry="0.09"/><ellipse class="cls-1" cx="14.86" cy="16.58" rx="0.2" ry="0.09"/><ellipse class="cls-1" cx="14.48" cy="16.9" rx="0.2" ry="0.09"/><ellipse class="cls-1" cx="16.14" cy="16.58" rx="0.2" ry="0.09"/><ellipse class="cls-1" cx="16.78" cy="16.58" rx="0.2" ry="0.09"/><ellipse class="cls-1" cx="17.42" cy="16.58" rx="0.2" ry="0.09"/><ellipse class="cls-1" cx="18.06" cy="16.58" rx="0.2" ry="0.09"/><ellipse class="cls-1" cx="18.7" cy="16.58" rx="0.2" ry="0.09"/><ellipse class="cls-1" cx="19.34" cy="16.58" rx="0.2" ry="0.09"/><ellipse class="cls-1" cx="19.98" cy="16.58" rx="0.2" ry="0.09"/><ellipse class="cls-1" cx="20.62" cy="16.58" rx="0.2" ry="0.09"/><ellipse class="cls-1" cx="21.01" cy="16.9" rx="0.2" ry="0.09"/><ellipse class="cls-1" cx="15.19" cy="16.27" rx="0.2" ry="0.09"/><ellipse class="cls-1" cx="15.83" cy="16.27" rx="0.2" ry="0.09"/><ellipse class="cls-1" cx="16.47" cy="16.27" rx="0.2" ry="0.09"/><ellipse class="cls-1" cx="17.11" cy="16.27" rx="0.2" ry="0.09"/><ellipse class="cls-1" cx="17.75" cy="16.27" rx="0.2" ry="0.09"/><ellipse class="cls-1" cx="18.39" cy="16.27" rx="0.2" ry="0.09"/><ellipse class="cls-1" cx="19.03" cy="16.27" rx="0.2" ry="0.09"/><ellipse class="cls-1" cx="19.67" cy="16.27" rx="0.2" ry="0.09"/><ellipse class="cls-1" cx="20.31" cy="16.27" rx="0.2" ry="0.09"/><ellipse class="cls-1" cx="15.13" cy="16.9" rx="0.2" ry="0.09"/><ellipse class="cls-1" cx="15.78" cy="16.9" rx="0.2" ry="0.09"/><ellipse class="cls-1" cx="16.44" cy="16.9" rx="0.2" ry="0.09"/><ellipse class="cls-1" cx="17.09" cy="16.9" rx="0.2" ry="0.09"/><ellipse class="cls-1" cx="17.74" cy="16.9" rx="0.2" ry="0.09"/><ellipse class="cls-1" cx="18.4" cy="16.9" rx="0.2" ry="0.09"/><ellipse class="cls-1" cx="19.05" cy="16.9" rx="0.2" ry="0.09"/><ellipse class="cls-1" cx="19.7" cy="16.9" rx="0.2" ry="0.09"/><ellipse class="cls-1" cx="20.35" cy="16.9" rx="0.2" ry="0.09"/><path class="cls-1" d="M21.95,17.55H13.48a0.12,0.12,0,0,1-.09-0.2L14.6,15.9a0.3,0.3,0,0,1,.21-0.1h5.81a0.31,0.31,0,0,1,.21.1L22,17.34A0.12,0.12,0,0,1,21.95,17.55Zm-8.39-.16h8.31L20.71,16a0.15,0.15,0,0,0-.09,0H14.81a0.15,0.15,0,0,0-.09,0Z"/></svg>