<svg id="Layer_1" data-name="Layer 1" xmlns="http://www.w3.org/2000/svg" viewBox="0 0 34.47 28.97"><defs><style>.cls-1{fill:#d70036;}</style></defs><title>Ratings Academy SVGs</title><circle class="cls-1" cx="17.31" cy="6" r="0.66"/><rect class="cls-1" x="9.53" y="7.71" width="15.6" height="8.97" rx="0.32" ry="0.32"/><path class="cls-1" d="M4,17.76a0.15,0.15,0,0,1-.09-0.17V9.78A0.15,0.15,0,0,1,4,9.61H6.46a0.15,0.15,0,0,1,.09.17V17.6a0.15,0.15,0,0,1-.09.17H4Z"/><path class="cls-1" d="M26.68,18.62H8a0.57,0.57,0,0,1-.57-0.57V6.35A0.57,0.57,0,0,1,8,5.77H15.8a0.24,0.24,0,1,1,0,.47H8a0.1,0.1,0,0,0-.1.1v11.7a0.11,0.11,0,0,0,.1.1H26.68a0.1,0.1,0,0,0,.1-0.1V6.35a0.1,0.1,0,0,0-.1-0.1H18.86a0.24,0.24,0,0,1,0-.47h7.82a0.57,0.57,0,0,1,.57.57v11.7a0.57,0.57,0,0,1-.57.57h0Z"/><ellipse class="cls-1" cx="10.15" cy="20.72" rx="0.64" ry="0.29"/><ellipse class="cls-1" cx="8.06" cy="20.72" rx="0.64" ry="0.29"/><ellipse class="cls-1" cx="6.82" cy="21.74" rx="0.64" ry="0.29"/><ellipse class="cls-1" cx="12.24" cy="20.72" rx="0.64" ry="0.29"/><ellipse class="cls-1" cx="14.32" cy="20.72" rx="0.64" ry="0.29"/><ellipse class="cls-1" cx="16.41" cy="20.72" rx="0.64" ry="0.29"/><ellipse class="cls-1" cx="18.5" cy="20.72" rx="0.64" ry="0.29"/><ellipse class="cls-1" cx="20.58" cy="20.72" rx="0.64" ry="0.29"/><ellipse class="cls-1" cx="22.67" cy="20.72" rx="0.64" ry="0.29"/><ellipse class="cls-1" cx="24.76" cy="20.72" rx="0.64" ry="0.29"/><ellipse class="cls-1" cx="26.84" cy="20.72" rx="0.64" ry="0.29"/><ellipse class="cls-1" cx="28.09" cy="21.74" rx="0.64" ry="0.29"/><ellipse class="cls-1" cx="9.13" cy="19.7" rx="0.64" ry="0.29"/><ellipse class="cls-1" cx="11.22" cy="19.7" rx="0.64" ry="0.29"/><ellipse class="cls-1" cx="13.31" cy="19.7" rx="0.64" ry="0.29"/><ellipse class="cls-1" cx="15.39" cy="19.7" rx="0.64" ry="0.29"/><ellipse class="cls-1" cx="17.48" cy="19.7" rx="0.64" ry="0.29"/><ellipse class="cls-1" cx="19.57" cy="19.7" rx="0.64" ry="0.29"/><ellipse class="cls-1" cx="21.65" cy="19.7" rx="0.64" ry="0.29"/><ellipse class="cls-1" cx="23.74" cy="19.7" rx="0.64" ry="0.29"/><ellipse class="cls-1" cx="25.83" cy="19.7" rx="0.64" ry="0.29"/><ellipse class="cls-1" cx="8.94" cy="21.74" rx="0.64" ry="0.29"/><ellipse class="cls-1" cx="11.07" cy="21.74" rx="0.64" ry="0.29"/><ellipse class="cls-1" cx="13.2" cy="21.74" rx="0.64" ry="0.29"/><ellipse class="cls-1" cx="15.33" cy="21.74" rx="0.64" ry="0.29"/><ellipse class="cls-1" cx="17.45" cy="21.74" rx="0.64" ry="0.29"/><ellipse class="cls-1" cx="19.58" cy="21.74" rx="0.64" ry="0.29"/><ellipse class="cls-1" cx="21.71" cy="21.74" rx="0.64" ry="0.29"/><ellipse class="cls-1" cx="23.84" cy="21.74" rx="0.64" ry="0.29"/><ellipse class="cls-1" cx="25.96" cy="21.74" rx="0.64" ry="0.29"/><path class="cls-1" d="M31.15,23.86H3.57a0.38,0.38,0,0,1-.31-0.66l3.95-4.72a1,1,0,0,1,.69-0.32H26.82a1,1,0,0,1,.69.32l3.95,4.72A0.38,0.38,0,0,1,31.15,23.86ZM3.82,23.34H30.89l-3.78-4.52a0.48,0.48,0,0,0-.29-0.14H7.9a0.48,0.48,0,0,0-.29.14Z"/></svg>