<svg id="Layer_1" data-name="Layer 1" xmlns="http://www.w3.org/2000/svg" viewBox="0 0 34.47 28.97"><defs><style>.cls-1{fill:#d70036;}</style></defs><title>Ratings Academy SVGs</title><path class="cls-1" d="M28.6,5.09H6A3.08,3.08,0,0,0,2.67,7.87V21.54A3.08,3.08,0,0,0,6,24.33H28.6a3.08,3.08,0,0,0,3.31-2.78V7.87A3.08,3.08,0,0,0,28.6,5.09Zm1.31,17.18H4.67V6.94H29.91V22.27Z"/><path class="cls-1" d="M9.16,18.16V17.77a0.12,0.12,0,0,0,0-.1H7.46a0.12,0.12,0,0,0,0,.1v1.52a0.12,0.12,0,0,0,0,.1H9.13a0.11,0.11,0,0,0,0-.1V18.44"/><path class="cls-1" d="M12.16,18.16V17.77a0.12,0.12,0,0,0,0-.1H10.46a0.12,0.12,0,0,0,0,.1v1.52a0.12,0.12,0,0,0,0,.1h1.67a0.11,0.11,0,0,0,0-.1V18.44"/><path class="cls-1" d="M15.16,18.16V17.77a0.12,0.12,0,0,0,0-.1H13.46a0.12,0.12,0,0,0,0,.1v1.52a0.12,0.12,0,0,0,0,.1h1.67a0.11,0.11,0,0,0,0-.1V18.44"/><path class="cls-1" d="M18.16,18.16V17.77a0.12,0.12,0,0,0,0-.1H16.46a0.12,0.12,0,0,0,0,.1v1.52a0.12,0.12,0,0,0,0,.1h1.67a0.11,0.11,0,0,0,0-.1V18.44"/><path class="cls-1" d="M21.16,18.16V17.77a0.12,0.12,0,0,0,0-.1H19.46a0.12,0.12,0,0,0,0,.1v1.52a0.12,0.12,0,0,0,0,.1h1.67a0.11,0.11,0,0,0,0-.1V18.44"/><path class="cls-1" d="M24.16,18.16V17.77a0.12,0.12,0,0,0,0-.1H22.46a0.12,0.12,0,0,0,0,.1v1.52a0.12,0.12,0,0,0,0,.1h1.67a0.11,0.11,0,0,0,0-.1V18.44"/><path class="cls-1" d="M27.16,18.16V17.77a0.12,0.12,0,0,0,0-.1H25.46a0.12,0.12,0,0,0,0,.1v1.52a0.12,0.12,0,0,0,0,.1h1.67a0.11,0.11,0,0,0,0-.1V18.44"/><path class="cls-1" d="M9.16,14.16V13.77a0.12,0.12,0,0,0,0-.1H7.46a0.12,0.12,0,0,0,0,.1v1.52a0.12,0.12,0,0,0,0,.1H9.13a0.11,0.11,0,0,0,0-.1V14.44"/><path class="cls-1" d="M12.16,14.16V13.77a0.12,0.12,0,0,0,0-.1H10.46a0.12,0.12,0,0,0,0,.1v1.52a0.12,0.12,0,0,0,0,.1h1.67a0.11,0.11,0,0,0,0-.1V14.44"/><path class="cls-1" d="M24.16,14.16V13.77a0.12,0.12,0,0,0,0-.1H22.46a0.12,0.12,0,0,0,0,.1v1.52a0.12,0.12,0,0,0,0,.1h1.67a0.11,0.11,0,0,0,0-.1V14.44"/><path class="cls-1" d="M27.16,14.16V13.77a0.12,0.12,0,0,0,0-.1H25.46a0.12,0.12,0,0,0,0,.1v1.52a0.12,0.12,0,0,0,0,.1h1.67a0.11,0.11,0,0,0,0-.1V14.44"/></svg>