<svg id="Layer_1" data-name="Layer 1" xmlns="http://www.w3.org/2000/svg" viewBox="0 0 34.47 28.97"><defs><style>.cls-1{fill:#d70036;}</style></defs><title>Ratings Academy SVGs</title><path class="cls-1" d="M19.75,24.72H15.2A3.16,3.16,0,0,1,12,21.57V9A3.16,3.16,0,0,1,15.2,5.86h4.55A3.16,3.16,0,0,1,22.91,9V21.57a3.16,3.16,0,0,1-3.16,3.16h0ZM15.2,6.27A2.75,2.75,0,0,0,12.45,9V21.57a2.75,2.75,0,0,0,2.75,2.75h4.55a2.75,2.75,0,0,0,2.75-2.75V9a2.75,2.75,0,0,0-2.75-2.75H15.2Z"/><rect class="cls-1" x="16.74" y="10.83" width="1.48" height="7.79" rx="0.08" ry="0.08"/><rect class="cls-1" x="16.74" y="8.6" width="1.48" height="1.45" rx="0.04" ry="0.04"/><circle class="cls-1" cx="17.48" cy="22.26" r="0.82"/></svg>