<svg id="Layer_1" data-name="Layer 1" xmlns="http://www.w3.org/2000/svg" viewBox="0 0 34.47 28.97"><defs><style>.cls-1{fill:#d70036;}.cls-2{fill:#fff;}</style></defs><title>Ratings Academy SVGs</title><circle class="cls-1" cx="17.19" cy="14.61" r="7.92"/><path class="cls-1" d="M17.26,9A5.59,5.59,0,0,0,14.81,19.6l2.25,6.26a0.2,0.2,0,0,0,.39,0l2.25-6.26A5.59,5.59,0,0,0,17.26,9Z"/><path class="cls-1" d="M22.85,14.58a5.59,5.59,0,0,0-10.61-2.45L6,14.38a0.2,0.2,0,0,0,0,.39L12.24,17A5.59,5.59,0,0,0,22.85,14.58Z"/><path class="cls-1" d="M17.26,20.17A5.59,5.59,0,0,0,19.71,9.55L17.46,3.29a0.2,0.2,0,0,0-.39,0L14.81,9.55A5.59,5.59,0,0,0,17.26,20.17Z"/><path class="cls-1" d="M11.67,14.58A5.59,5.59,0,0,0,22.29,17l6.26-2.25a0.2,0.2,0,0,0,0-.39l-6.26-2.25A5.59,5.59,0,0,0,11.67,14.58Z"/><circle class="cls-2" cx="17.19" cy="14.61" r="6.29"/><path class="cls-1" d="M18.23,18.58H16.32A1.33,1.33,0,0,1,15,17.26V12a1.33,1.33,0,0,1,1.32-1.32h1.91A1.33,1.33,0,0,1,19.56,12v5.26a1.33,1.33,0,0,1-1.32,1.32h0Zm-1.91-7.74A1.15,1.15,0,0,0,15.17,12v5.26a1.15,1.15,0,0,0,1.15,1.15h1.91a1.15,1.15,0,0,0,1.15-1.15V12a1.15,1.15,0,0,0-1.15-1.15H16.32Z"/><rect class="cls-1" x="16.97" y="12.76" width="0.62" height="3.26" rx="0.03" ry="0.03"/><rect class="cls-1" x="16.97" y="11.82" width="0.62" height="0.61" rx="0.01" ry="0.01"/><circle class="cls-1" cx="17.28" cy="17.55" r="0.35"/></svg>