<svg id="Layer_1" data-name="Layer 1" xmlns="http://www.w3.org/2000/svg" xmlns:xlink="http://www.w3.org/1999/xlink" viewBox="0 0 158.39 269.43"><defs><style>.cls-1,.cls-6{fill:none;}.cls-2{clip-path:url(#clip-path);}.cls-3{opacity:0.1;}.cls-4{clip-path:url(#clip-path-3);}.cls-5{fill:#d70036;}.cls-6{stroke:#d70036;stroke-miterlimit:10;stroke-width:3px;}.cls-7{clip-path:url(#clip-path-4);}.cls-8{clip-path:url(#clip-path-5);}.cls-9{clip-path:url(#clip-path-6);}.cls-10{clip-path:url(#clip-path-7);}.cls-11{clip-path:url(#clip-path-8);}.cls-12{clip-path:url(#clip-path-9);}.cls-13{clip-path:url(#clip-path-10);}.cls-14{clip-path:url(#clip-path-11);}.cls-15{clip-path:url(#clip-path-12);}.cls-16{clip-path:url(#clip-path-13);}.cls-17{clip-path:url(#clip-path-14);}.cls-18{clip-path:url(#clip-path-15);}.cls-19{clip-path:url(#clip-path-16);}.cls-20{clip-path:url(#clip-path-17);}.cls-21{clip-path:url(#clip-path-18);}.cls-22{clip-path:url(#clip-path-19);}.cls-23{clip-path:url(#clip-path-20);}.cls-24{clip-path:url(#clip-path-21);}.cls-25{clip-path:url(#clip-path-22);}.cls-26{clip-path:url(#clip-path-23);}.cls-27{clip-path:url(#clip-path-24);}.cls-28{clip-path:url(#clip-path-25);}.cls-29{clip-path:url(#clip-path-26);}.cls-30{clip-path:url(#clip-path-27);}.cls-31{clip-path:url(#clip-path-28);}.cls-32{clip-path:url(#clip-path-29);}.cls-33{clip-path:url(#clip-path-30);}.cls-34{clip-path:url(#clip-path-31);}.cls-35{clip-path:url(#clip-path-32);}.cls-36{clip-path:url(#clip-path-33);}.cls-37{clip-path:url(#clip-path-34);}.cls-38{clip-path:url(#clip-path-35);}.cls-39{clip-path:url(#clip-path-36);}.cls-40{clip-path:url(#clip-path-37);}.cls-41{clip-path:url(#clip-path-38);}.cls-42{clip-path:url(#clip-path-39);}.cls-43{clip-path:url(#clip-path-40);}.cls-44{clip-path:url(#clip-path-41);}.cls-45{clip-path:url(#clip-path-42);}.cls-46{clip-path:url(#clip-path-43);}.cls-47{clip-path:url(#clip-path-44);}.cls-48{clip-path:url(#clip-path-45);}.cls-49{clip-path:url(#clip-path-46);}.cls-50{clip-path:url(#clip-path-47);}.cls-51{clip-path:url(#clip-path-48);}.cls-52{clip-path:url(#clip-path-49);}.cls-53{clip-path:url(#clip-path-50);}.cls-54{clip-path:url(#clip-path-51);}.cls-55{clip-path:url(#clip-path-52);}.cls-56{clip-path:url(#clip-path-53);}.cls-57{clip-path:url(#clip-path-54);}.cls-58{clip-path:url(#clip-path-55);}.cls-59{clip-path:url(#clip-path-56);}.cls-60{clip-path:url(#clip-path-57);}</style><clipPath id="clip-path"><rect class="cls-1" width="158.39" height="269.43"/></clipPath><clipPath id="clip-path-3"><rect class="cls-1" x="-7.5" y="-7" width="23.49" height="13.49"/></clipPath><clipPath id="clip-path-4"><rect class="cls-1" x="-7.5" y="11.74" width="23.49" height="13.49"/></clipPath><clipPath id="clip-path-5"><rect class="cls-1" x="11.24" y="-7" width="23.49" height="13.49"/></clipPath><clipPath id="clip-path-6"><rect class="cls-1" x="11.24" y="11.74" width="23.49" height="13.49"/></clipPath><clipPath id="clip-path-7"><rect class="cls-1" x="29.98" y="-7" width="23.49" height="13.49"/></clipPath><clipPath id="clip-path-8"><rect class="cls-1" x="29.98" y="11.74" width="23.49" height="13.49"/></clipPath><clipPath id="clip-path-9"><rect class="cls-1" x="29.98" y="30.48" width="23.49" height="13.49"/></clipPath><clipPath id="clip-path-10"><rect class="cls-1" x="48.71" y="-7" width="23.49" height="13.49"/></clipPath><clipPath id="clip-path-11"><rect class="cls-1" x="48.71" y="11.74" width="23.49" height="13.49"/></clipPath><clipPath id="clip-path-12"><rect class="cls-1" x="48.71" y="30.48" width="23.49" height="13.49"/></clipPath><clipPath id="clip-path-13"><rect class="cls-1" x="48.71" y="49.22" width="23.49" height="13.49"/></clipPath><clipPath id="clip-path-14"><rect class="cls-1" x="67.45" y="-7" width="23.49" height="13.49"/></clipPath><clipPath id="clip-path-15"><rect class="cls-1" x="67.45" y="11.74" width="23.49" height="13.49"/></clipPath><clipPath id="clip-path-16"><rect class="cls-1" x="67.45" y="30.48" width="23.49" height="13.49"/></clipPath><clipPath id="clip-path-17"><rect class="cls-1" x="67.45" y="49.22" width="23.49" height="13.49"/></clipPath><clipPath id="clip-path-18"><rect class="cls-1" x="67.45" y="67.95" width="23.49" height="13.49"/></clipPath><clipPath id="clip-path-19"><rect class="cls-1" x="67.45" y="86.69" width="23.49" height="13.49"/></clipPath><clipPath id="clip-path-20"><rect class="cls-1" x="86.19" y="-7" width="23.49" height="13.49"/></clipPath><clipPath id="clip-path-21"><rect class="cls-1" x="86.19" y="124.28" width="23.49" height="13.49"/></clipPath><clipPath id="clip-path-22"><rect class="cls-1" x="86.19" y="11.74" width="23.49" height="13.49"/></clipPath><clipPath id="clip-path-23"><rect class="cls-1" x="86.19" y="30.48" width="23.49" height="13.49"/></clipPath><clipPath id="clip-path-24"><rect class="cls-1" x="86.19" y="49.22" width="23.49" height="13.49"/></clipPath><clipPath id="clip-path-25"><rect class="cls-1" x="86.19" y="67.95" width="23.49" height="13.49"/></clipPath><clipPath id="clip-path-26"><rect class="cls-1" x="86.19" y="86.69" width="23.49" height="13.49"/></clipPath><clipPath id="clip-path-27"><rect class="cls-1" x="86.19" y="105.43" width="23.49" height="13.49"/></clipPath><clipPath id="clip-path-28"><rect class="cls-1" x="104.93" y="-7" width="23.49" height="13.49"/></clipPath><clipPath id="clip-path-29"><rect class="cls-1" x="104.93" y="124.28" width="23.49" height="13.49"/></clipPath><clipPath id="clip-path-30"><rect class="cls-1" x="104.93" y="11.74" width="23.49" height="13.49"/></clipPath><clipPath id="clip-path-31"><rect class="cls-1" x="104.93" y="30.48" width="23.49" height="13.49"/></clipPath><clipPath id="clip-path-32"><rect class="cls-1" x="104.93" y="49.22" width="23.49" height="13.49"/></clipPath><clipPath id="clip-path-33"><rect class="cls-1" x="104.93" y="67.95" width="23.49" height="13.49"/></clipPath><clipPath id="clip-path-34"><rect class="cls-1" x="104.93" y="86.69" width="23.49" height="13.49"/></clipPath><clipPath id="clip-path-35"><rect class="cls-1" x="104.93" y="105.43" width="23.49" height="13.49"/></clipPath><clipPath id="clip-path-36"><rect class="cls-1" x="123.67" y="-7" width="23.49" height="13.49"/></clipPath><clipPath id="clip-path-37"><rect class="cls-1" x="123.67" y="124.28" width="23.49" height="13.49"/></clipPath><clipPath id="clip-path-38"><rect class="cls-1" x="123.67" y="11.74" width="23.49" height="13.49"/></clipPath><clipPath id="clip-path-39"><rect class="cls-1" x="123.67" y="143.01" width="23.49" height="13.49"/></clipPath><clipPath id="clip-path-40"><rect class="cls-1" x="123.67" y="30.48" width="23.49" height="13.49"/></clipPath><clipPath id="clip-path-41"><rect class="cls-1" x="123.67" y="161.75" width="23.49" height="13.49"/></clipPath><clipPath id="clip-path-42"><rect class="cls-1" x="123.67" y="49.22" width="23.49" height="13.49"/></clipPath><clipPath id="clip-path-43"><rect class="cls-1" x="123.67" y="67.95" width="23.49" height="13.49"/></clipPath><clipPath id="clip-path-44"><rect class="cls-1" x="123.67" y="86.69" width="23.49" height="13.49"/></clipPath><clipPath id="clip-path-45"><rect class="cls-1" x="123.67" y="105.43" width="23.49" height="13.49"/></clipPath><clipPath id="clip-path-46"><rect class="cls-1" x="142.4" y="-7" width="23.49" height="13.49"/></clipPath><clipPath id="clip-path-47"><rect class="cls-1" x="142.4" y="124.28" width="23.49" height="13.49"/></clipPath><clipPath id="clip-path-48"><rect class="cls-1" x="142.4" y="11.74" width="23.49" height="13.49"/></clipPath><clipPath id="clip-path-49"><rect class="cls-1" x="142.4" y="143.01" width="23.49" height="13.49"/></clipPath><clipPath id="clip-path-50"><rect class="cls-1" x="142.4" y="30.48" width="23.49" height="13.49"/></clipPath><clipPath id="clip-path-51"><rect class="cls-1" x="142.4" y="161.75" width="23.49" height="13.49"/></clipPath><clipPath id="clip-path-52"><rect class="cls-1" x="142.4" y="49.22" width="23.49" height="13.49"/></clipPath><clipPath id="clip-path-53"><rect class="cls-1" x="142.4" y="180.49" width="23.49" height="13.49"/></clipPath><clipPath id="clip-path-54"><rect class="cls-1" x="142.4" y="67.95" width="23.49" height="13.49"/></clipPath><clipPath id="clip-path-55"><rect class="cls-1" x="142.4" y="199.23" width="23.49" height="13.49"/></clipPath><clipPath id="clip-path-56"><rect class="cls-1" x="142.4" y="86.69" width="23.49" height="13.49"/></clipPath><clipPath id="clip-path-57"><rect class="cls-1" x="142.4" y="105.43" width="23.49" height="13.49"/></clipPath></defs><title>Ratings Academy SVGs</title><g class="cls-2"><g class="cls-2"><g class="cls-3"><g class="cls-4"><path class="cls-5" d="M4.24,5.49A2.74,2.74,0,1,0,1.5,2.74,2.74,2.74,0,0,0,4.24,5.49"/></g></g><path class="cls-5" d="M4.24,136.76A2.74,2.74,0,1,0,1.5,134a2.74,2.74,0,0,0,2.74,2.74"/><circle class="cls-6" cx="4.24" cy="134.02" r="2.74"/><g class="cls-3"><g class="cls-7"><path class="cls-5" d="M4.24,24.23A2.74,2.74,0,1,0,1.5,21.48a2.74,2.74,0,0,0,2.74,2.74"/></g></g><path class="cls-5" d="M4.24,155.5a2.74,2.74,0,1,0-2.74-2.74,2.74,2.74,0,0,0,2.74,2.74"/><circle class="cls-6" cx="4.24" cy="152.76" r="2.74"/><path class="cls-5" d="M4.24,43A2.74,2.74,0,1,0,1.5,40.22,2.74,2.74,0,0,0,4.24,43"/><circle class="cls-6" cx="4.24" cy="40.22" r="2.74"/><path class="cls-5" d="M4.24,174.24a2.74,2.74,0,1,0-2.74-2.74,2.74,2.74,0,0,0,2.74,2.74"/><circle class="cls-6" cx="4.24" cy="171.49" r="2.74"/><path class="cls-5" d="M4.24,61.7A2.74,2.74,0,1,0,1.5,59,2.74,2.74,0,0,0,4.24,61.7"/><circle class="cls-6" cx="4.24" cy="58.96" r="2.74"/><path class="cls-5" d="M4.24,193a2.74,2.74,0,1,0-2.74-2.74A2.74,2.74,0,0,0,4.24,193"/><circle class="cls-6" cx="4.24" cy="190.23" r="2.74"/><path class="cls-5" d="M4.24,80.44A2.74,2.74,0,1,0,1.5,77.7a2.74,2.74,0,0,0,2.74,2.74"/><circle class="cls-6" cx="4.24" cy="77.7" r="2.74"/><path class="cls-5" d="M4.24,211.71A2.74,2.74,0,1,0,1.5,209a2.74,2.74,0,0,0,2.74,2.74"/><circle class="cls-6" cx="4.24" cy="208.97" r="2.74"/><path class="cls-5" d="M4.24,99.18A2.74,2.74,0,1,0,1.5,96.43a2.74,2.74,0,0,0,2.74,2.74"/><circle class="cls-6" cx="4.24" cy="96.43" r="2.74"/><path class="cls-5" d="M4.24,230.45a2.74,2.74,0,1,0-2.74-2.74,2.74,2.74,0,0,0,2.74,2.74"/><circle class="cls-6" cx="4.24" cy="227.71" r="2.74"/><path class="cls-5" d="M4.24,117.92a2.74,2.74,0,1,0-2.74-2.74,2.74,2.74,0,0,0,2.74,2.74"/><circle class="cls-6" cx="4.24" cy="115.17" r="2.74"/><path class="cls-5" d="M4.24,249.19a2.74,2.74,0,1,0-2.74-2.74,2.74,2.74,0,0,0,2.74,2.74"/><circle class="cls-6" cx="4.24" cy="246.45" r="2.74"/><path class="cls-5" d="M4.24,267.93a2.74,2.74,0,1,0-2.74-2.74,2.74,2.74,0,0,0,2.74,2.74"/><circle class="cls-6" cx="4.24" cy="265.18" r="2.74"/><g class="cls-3"><g class="cls-8"><path class="cls-5" d="M23,5.49a2.74,2.74,0,1,0-2.74-2.74A2.74,2.74,0,0,0,23,5.49"/></g></g><path class="cls-5" d="M23,136.76A2.74,2.74,0,1,0,20.24,134,2.74,2.74,0,0,0,23,136.76"/><circle class="cls-6" cx="22.98" cy="134.02" r="2.74"/><g class="cls-3"><g class="cls-9"><path class="cls-5" d="M23,24.23a2.74,2.74,0,1,0-2.74-2.74A2.74,2.74,0,0,0,23,24.23"/></g></g><path class="cls-5" d="M23,155.5a2.74,2.74,0,1,0-2.74-2.74A2.74,2.74,0,0,0,23,155.5"/><circle class="cls-6" cx="22.98" cy="152.76" r="2.74"/><path class="cls-5" d="M23,43a2.74,2.74,0,1,0-2.74-2.74A2.74,2.74,0,0,0,23,43"/><circle class="cls-6" cx="22.98" cy="40.22" r="2.74"/><path class="cls-5" d="M23,174.24a2.74,2.74,0,1,0-2.74-2.74A2.74,2.74,0,0,0,23,174.24"/><circle class="cls-6" cx="22.98" cy="171.49" r="2.74"/><path class="cls-5" d="M23,61.7A2.74,2.74,0,1,0,20.24,59,2.74,2.74,0,0,0,23,61.7"/><circle class="cls-6" cx="22.98" cy="58.96" r="2.74"/><path class="cls-5" d="M23,193a2.74,2.74,0,1,0-2.74-2.74A2.74,2.74,0,0,0,23,193"/><circle class="cls-6" cx="22.98" cy="190.23" r="2.74"/><path class="cls-5" d="M23,80.44a2.74,2.74,0,1,0-2.74-2.74A2.74,2.74,0,0,0,23,80.44"/><circle class="cls-6" cx="22.98" cy="77.7" r="2.74"/><path class="cls-5" d="M23,211.71A2.74,2.74,0,1,0,20.24,209,2.74,2.74,0,0,0,23,211.71"/><circle class="cls-6" cx="22.98" cy="208.97" r="2.74"/><path class="cls-5" d="M23,99.18a2.74,2.74,0,1,0-2.74-2.74A2.74,2.74,0,0,0,23,99.18"/><circle class="cls-6" cx="22.98" cy="96.43" r="2.74"/><path class="cls-5" d="M23,230.45a2.74,2.74,0,1,0-2.74-2.74A2.74,2.74,0,0,0,23,230.45"/><circle class="cls-6" cx="22.98" cy="227.71" r="2.74"/><path class="cls-5" d="M23,117.92a2.74,2.74,0,1,0-2.74-2.74A2.74,2.74,0,0,0,23,117.92"/><circle class="cls-6" cx="22.98" cy="115.17" r="2.74"/><path class="cls-5" d="M23,249.19a2.74,2.74,0,1,0-2.74-2.74A2.74,2.74,0,0,0,23,249.19"/><circle class="cls-6" cx="22.98" cy="246.45" r="2.74"/><path class="cls-5" d="M23,267.93a2.74,2.74,0,1,0-2.74-2.74A2.74,2.74,0,0,0,23,267.93"/><circle class="cls-6" cx="22.98" cy="265.18" r="2.74"/><g class="cls-3"><g class="cls-10"><path class="cls-5" d="M41.72,5.49A2.74,2.74,0,1,0,39,2.74a2.74,2.74,0,0,0,2.74,2.74"/></g></g><path class="cls-5" d="M41.72,136.76A2.74,2.74,0,1,0,39,134a2.74,2.74,0,0,0,2.74,2.74"/><circle class="cls-6" cx="41.72" cy="134.02" r="2.74"/><g class="cls-3"><g class="cls-11"><path class="cls-5" d="M41.72,24.23A2.74,2.74,0,1,0,39,21.48a2.74,2.74,0,0,0,2.74,2.74"/></g></g><path class="cls-5" d="M41.72,155.5A2.74,2.74,0,1,0,39,152.76a2.74,2.74,0,0,0,2.74,2.74"/><circle class="cls-6" cx="41.72" cy="152.76" r="2.74"/><g class="cls-3"><g class="cls-12"><path class="cls-5" d="M41.72,43A2.74,2.74,0,1,0,39,40.22,2.74,2.74,0,0,0,41.72,43"/></g></g><path class="cls-5" d="M41.72,174.24A2.74,2.74,0,1,0,39,171.49a2.74,2.74,0,0,0,2.74,2.74"/><circle class="cls-6" cx="41.72" cy="171.49" r="2.74"/><path class="cls-5" d="M41.72,61.7A2.74,2.74,0,1,0,39,59a2.74,2.74,0,0,0,2.74,2.74"/><circle class="cls-6" cx="41.72" cy="58.96" r="2.74"/><path class="cls-5" d="M41.72,193A2.74,2.74,0,1,0,39,190.23,2.74,2.74,0,0,0,41.72,193"/><circle class="cls-6" cx="41.72" cy="190.23" r="2.74"/><path class="cls-5" d="M41.72,80.44A2.74,2.74,0,1,0,39,77.7a2.74,2.74,0,0,0,2.74,2.74"/><circle class="cls-6" cx="41.72" cy="77.7" r="2.74"/><path class="cls-5" d="M41.72,211.71A2.74,2.74,0,1,0,39,209a2.74,2.74,0,0,0,2.74,2.74"/><circle class="cls-6" cx="41.72" cy="208.97" r="2.74"/><path class="cls-5" d="M41.72,99.18A2.74,2.74,0,1,0,39,96.43a2.74,2.74,0,0,0,2.74,2.74"/><circle class="cls-6" cx="41.72" cy="96.43" r="2.74"/><path class="cls-5" d="M41.72,230.45A2.74,2.74,0,1,0,39,227.71a2.74,2.74,0,0,0,2.74,2.74"/><circle class="cls-6" cx="41.72" cy="227.71" r="2.74"/><path class="cls-5" d="M41.72,117.92A2.74,2.74,0,1,0,39,115.17a2.74,2.74,0,0,0,2.74,2.74"/><circle class="cls-6" cx="41.72" cy="115.17" r="2.74"/><path class="cls-5" d="M41.72,249.19A2.74,2.74,0,1,0,39,246.45a2.74,2.74,0,0,0,2.74,2.74"/><circle class="cls-6" cx="41.72" cy="246.45" r="2.74"/><path class="cls-5" d="M41.72,267.93A2.74,2.74,0,1,0,39,265.18a2.74,2.74,0,0,0,2.74,2.74"/><circle class="cls-6" cx="41.72" cy="265.18" r="2.74"/><g class="cls-3"><g class="cls-13"><path class="cls-5" d="M60.46,5.49a2.74,2.74,0,1,0-2.74-2.74,2.74,2.74,0,0,0,2.74,2.74"/></g></g><path class="cls-5" d="M60.46,136.76A2.74,2.74,0,1,0,57.71,134a2.74,2.74,0,0,0,2.74,2.74"/><circle class="cls-6" cx="60.46" cy="134.02" r="2.74"/><g class="cls-3"><g class="cls-14"><path class="cls-5" d="M60.46,24.23a2.74,2.74,0,1,0-2.74-2.74,2.74,2.74,0,0,0,2.74,2.74"/></g></g><path class="cls-5" d="M60.46,155.5a2.74,2.74,0,1,0-2.74-2.74,2.74,2.74,0,0,0,2.74,2.74"/><circle class="cls-6" cx="60.46" cy="152.76" r="2.74"/><g class="cls-3"><g class="cls-15"><path class="cls-5" d="M60.46,43a2.74,2.74,0,1,0-2.74-2.74A2.74,2.74,0,0,0,60.46,43"/></g></g><path class="cls-5" d="M60.46,174.24a2.74,2.74,0,1,0-2.74-2.74,2.74,2.74,0,0,0,2.74,2.74"/><circle class="cls-6" cx="60.46" cy="171.49" r="2.74"/><g class="cls-3"><g class="cls-16"><path class="cls-5" d="M60.46,61.7A2.74,2.74,0,1,0,57.71,59a2.74,2.74,0,0,0,2.74,2.74"/></g></g><path class="cls-5" d="M60.46,193a2.74,2.74,0,1,0-2.74-2.74A2.74,2.74,0,0,0,60.46,193"/><circle class="cls-6" cx="60.46" cy="190.23" r="2.74"/><path class="cls-5" d="M60.46,80.44a2.74,2.74,0,1,0-2.74-2.74,2.74,2.74,0,0,0,2.74,2.74"/><circle class="cls-6" cx="60.46" cy="77.7" r="2.74"/><path class="cls-5" d="M60.46,211.71A2.74,2.74,0,1,0,57.71,209a2.74,2.74,0,0,0,2.74,2.74"/><circle class="cls-6" cx="60.46" cy="208.97" r="2.74"/><path class="cls-5" d="M60.46,99.18a2.74,2.74,0,1,0-2.74-2.74,2.74,2.74,0,0,0,2.74,2.74"/><circle class="cls-6" cx="60.46" cy="96.43" r="2.74"/><path class="cls-5" d="M60.46,230.45a2.74,2.74,0,1,0-2.74-2.74,2.74,2.74,0,0,0,2.74,2.74"/><circle class="cls-6" cx="60.46" cy="227.71" r="2.74"/><path class="cls-5" d="M60.46,117.92a2.74,2.74,0,1,0-2.74-2.74,2.74,2.74,0,0,0,2.74,2.74"/><circle class="cls-6" cx="60.46" cy="115.17" r="2.74"/><path class="cls-5" d="M60.46,249.19a2.74,2.74,0,1,0-2.74-2.74,2.74,2.74,0,0,0,2.74,2.74"/><circle class="cls-6" cx="60.46" cy="246.45" r="2.74"/><path class="cls-5" d="M60.46,267.93a2.74,2.74,0,1,0-2.74-2.74,2.74,2.74,0,0,0,2.74,2.74"/><circle class="cls-6" cx="60.46" cy="265.18" r="2.74"/><g class="cls-3"><g class="cls-17"><path class="cls-5" d="M79.2,5.49a2.74,2.74,0,1,0-2.74-2.74A2.74,2.74,0,0,0,79.2,5.49"/></g></g><path class="cls-5" d="M79.2,136.76A2.74,2.74,0,1,0,76.45,134a2.74,2.74,0,0,0,2.74,2.74"/><circle class="cls-6" cx="79.2" cy="134.02" r="2.74"/><g class="cls-3"><g class="cls-18"><path class="cls-5" d="M79.2,24.23a2.74,2.74,0,1,0-2.74-2.74,2.74,2.74,0,0,0,2.74,2.74"/></g></g><path class="cls-5" d="M79.2,155.5a2.74,2.74,0,1,0-2.74-2.74,2.74,2.74,0,0,0,2.74,2.74"/><circle class="cls-6" cx="79.2" cy="152.76" r="2.74"/><g class="cls-3"><g class="cls-19"><path class="cls-5" d="M79.2,43a2.74,2.74,0,1,0-2.74-2.74A2.74,2.74,0,0,0,79.2,43"/></g></g><path class="cls-5" d="M79.2,174.24a2.74,2.74,0,1,0-2.74-2.74,2.74,2.74,0,0,0,2.74,2.74"/><circle class="cls-6" cx="79.2" cy="171.49" r="2.74"/><g class="cls-3"><g class="cls-20"><path class="cls-5" d="M79.2,61.7A2.74,2.74,0,1,0,76.45,59,2.74,2.74,0,0,0,79.2,61.7"/></g></g><path class="cls-5" d="M79.2,193a2.74,2.74,0,1,0-2.74-2.74A2.74,2.74,0,0,0,79.2,193"/><circle class="cls-6" cx="79.2" cy="190.23" r="2.74"/><g class="cls-3"><g class="cls-21"><path class="cls-5" d="M79.2,80.44a2.74,2.74,0,1,0-2.74-2.74,2.74,2.74,0,0,0,2.74,2.74"/></g></g><path class="cls-5" d="M79.2,211.71A2.74,2.74,0,1,0,76.45,209a2.74,2.74,0,0,0,2.74,2.74"/><circle class="cls-6" cx="79.2" cy="208.97" r="2.74"/><g class="cls-3"><g class="cls-22"><path class="cls-5" d="M79.2,99.18a2.74,2.74,0,1,0-2.74-2.74,2.74,2.74,0,0,0,2.74,2.74"/></g></g><path class="cls-5" d="M79.2,230.45a2.74,2.74,0,1,0-2.74-2.74,2.74,2.74,0,0,0,2.74,2.74"/><circle class="cls-6" cx="79.2" cy="227.71" r="2.74"/><path class="cls-5" d="M79.2,117.92a2.74,2.74,0,1,0-2.74-2.74,2.74,2.74,0,0,0,2.74,2.74"/><circle class="cls-6" cx="79.2" cy="115.17" r="2.74"/><path class="cls-5" d="M79.2,249.19a2.74,2.74,0,1,0-2.74-2.74,2.74,2.74,0,0,0,2.74,2.74"/><circle class="cls-6" cx="79.2" cy="246.45" r="2.74"/><path class="cls-5" d="M79.2,267.93a2.74,2.74,0,1,0-2.74-2.74,2.74,2.74,0,0,0,2.74,2.74"/><circle class="cls-6" cx="79.2" cy="265.18" r="2.74"/><g class="cls-3"><g class="cls-23"><path class="cls-5" d="M97.93,5.49a2.74,2.74,0,1,0-2.74-2.74,2.74,2.74,0,0,0,2.74,2.74"/></g></g><g class="cls-3"><g class="cls-24"><path class="cls-5" d="M97.93,136.76A2.74,2.74,0,1,0,95.19,134a2.74,2.74,0,0,0,2.74,2.74"/></g></g><g class="cls-3"><g class="cls-25"><path class="cls-5" d="M97.93,24.23a2.74,2.74,0,1,0-2.74-2.74,2.74,2.74,0,0,0,2.74,2.74"/></g></g><path class="cls-5" d="M97.93,155.5a2.74,2.74,0,1,0-2.74-2.74,2.74,2.74,0,0,0,2.74,2.74"/><circle class="cls-6" cx="97.93" cy="152.76" r="2.74"/><g class="cls-3"><g class="cls-26"><path class="cls-5" d="M97.93,43a2.74,2.74,0,1,0-2.74-2.74A2.74,2.74,0,0,0,97.93,43"/></g></g><path class="cls-5" d="M97.93,174.24a2.74,2.74,0,1,0-2.74-2.74,2.74,2.74,0,0,0,2.74,2.74"/><circle class="cls-6" cx="97.93" cy="171.49" r="2.74"/><g class="cls-3"><g class="cls-27"><path class="cls-5" d="M97.93,61.7A2.74,2.74,0,1,0,95.19,59a2.74,2.74,0,0,0,2.74,2.74"/></g></g><path class="cls-5" d="M97.93,193a2.74,2.74,0,1,0-2.74-2.74A2.74,2.74,0,0,0,97.93,193"/><circle class="cls-6" cx="97.93" cy="190.23" r="2.74"/><g class="cls-3"><g class="cls-28"><path class="cls-5" d="M97.93,80.44a2.74,2.74,0,1,0-2.74-2.74,2.74,2.74,0,0,0,2.74,2.74"/></g></g><path class="cls-5" d="M97.93,211.71A2.74,2.74,0,1,0,95.19,209a2.74,2.74,0,0,0,2.74,2.74"/><circle class="cls-6" cx="97.93" cy="208.97" r="2.74"/><g class="cls-3"><g class="cls-29"><path class="cls-5" d="M97.93,99.18a2.74,2.74,0,1,0-2.74-2.74,2.74,2.74,0,0,0,2.74,2.74"/></g></g><path class="cls-5" d="M97.93,230.45a2.74,2.74,0,1,0-2.74-2.74,2.74,2.74,0,0,0,2.74,2.74"/><circle class="cls-6" cx="97.93" cy="227.71" r="2.74"/><g class="cls-3"><g class="cls-30"><path class="cls-5" d="M97.93,117.92a2.74,2.74,0,1,0-2.74-2.74,2.74,2.74,0,0,0,2.74,2.74"/></g></g><path class="cls-5" d="M97.93,249.19a2.74,2.74,0,1,0-2.74-2.74,2.74,2.74,0,0,0,2.74,2.74"/><circle class="cls-6" cx="97.93" cy="246.45" r="2.74"/><path class="cls-5" d="M97.93,267.93a2.74,2.74,0,1,0-2.74-2.74,2.74,2.74,0,0,0,2.74,2.74"/><circle class="cls-6" cx="97.93" cy="265.18" r="2.74"/><g class="cls-3"><g class="cls-31"><path class="cls-5" d="M116.67,5.49a2.74,2.74,0,1,0-2.74-2.74,2.74,2.74,0,0,0,2.74,2.74"/></g></g><g class="cls-3"><g class="cls-32"><path class="cls-5" d="M116.67,136.76a2.74,2.74,0,1,0-2.74-2.74,2.74,2.74,0,0,0,2.74,2.74"/></g></g><g class="cls-3"><g class="cls-33"><path class="cls-5" d="M116.67,24.23a2.74,2.74,0,1,0-2.74-2.74,2.74,2.74,0,0,0,2.74,2.74"/></g></g><path class="cls-5" d="M116.67,155.5a2.74,2.74,0,1,0-2.74-2.74,2.74,2.74,0,0,0,2.74,2.74"/><circle class="cls-6" cx="116.67" cy="152.76" r="2.74"/><g class="cls-3"><g class="cls-34"><path class="cls-5" d="M116.67,43a2.74,2.74,0,1,0-2.74-2.74A2.74,2.74,0,0,0,116.67,43"/></g></g><path class="cls-5" d="M116.67,174.24a2.74,2.74,0,1,0-2.74-2.74,2.74,2.74,0,0,0,2.74,2.74"/><circle class="cls-6" cx="116.67" cy="171.49" r="2.74"/><g class="cls-3"><g class="cls-35"><path class="cls-5" d="M116.67,61.7A2.74,2.74,0,1,0,113.93,59a2.74,2.74,0,0,0,2.74,2.74"/></g></g><path class="cls-5" d="M116.67,193a2.74,2.74,0,1,0-2.74-2.74,2.74,2.74,0,0,0,2.74,2.74"/><circle class="cls-6" cx="116.67" cy="190.23" r="2.74"/><g class="cls-3"><g class="cls-36"><path class="cls-5" d="M116.67,80.44a2.74,2.74,0,1,0-2.74-2.74,2.74,2.74,0,0,0,2.74,2.74"/></g></g><path class="cls-5" d="M116.67,211.71a2.74,2.74,0,1,0-2.74-2.74,2.74,2.74,0,0,0,2.74,2.74"/><circle class="cls-6" cx="116.67" cy="208.97" r="2.74"/><g class="cls-3"><g class="cls-37"><path class="cls-5" d="M116.67,99.18a2.74,2.74,0,1,0-2.74-2.74,2.74,2.74,0,0,0,2.74,2.74"/></g></g><path class="cls-5" d="M116.67,230.45a2.74,2.74,0,1,0-2.74-2.74,2.74,2.74,0,0,0,2.74,2.74"/><circle class="cls-6" cx="116.67" cy="227.71" r="2.74"/><g class="cls-3"><g class="cls-38"><path class="cls-5" d="M116.67,117.92a2.74,2.74,0,1,0-2.74-2.74,2.74,2.74,0,0,0,2.74,2.74"/></g></g><path class="cls-5" d="M116.67,249.19a2.74,2.74,0,1,0-2.74-2.74,2.74,2.74,0,0,0,2.74,2.74"/><circle class="cls-6" cx="116.67" cy="246.45" r="2.74"/><path class="cls-5" d="M116.67,267.93a2.74,2.74,0,1,0-2.74-2.74,2.74,2.74,0,0,0,2.74,2.74"/><circle class="cls-6" cx="116.67" cy="265.18" r="2.74"/><g class="cls-3"><g class="cls-39"><path class="cls-5" d="M135.41,5.49a2.74,2.74,0,1,0-2.74-2.74,2.74,2.74,0,0,0,2.74,2.74"/></g></g><g class="cls-3"><g class="cls-40"><path class="cls-5" d="M135.41,136.76a2.74,2.74,0,1,0-2.74-2.74,2.74,2.74,0,0,0,2.74,2.74"/></g></g><g class="cls-3"><g class="cls-41"><path class="cls-5" d="M135.41,24.23a2.74,2.74,0,1,0-2.74-2.74,2.74,2.74,0,0,0,2.74,2.74"/></g></g><g class="cls-3"><g class="cls-42"><path class="cls-5" d="M135.41,155.5a2.74,2.74,0,1,0-2.74-2.74,2.74,2.74,0,0,0,2.74,2.74"/></g></g><g class="cls-3"><g class="cls-43"><path class="cls-5" d="M135.41,43a2.74,2.74,0,1,0-2.74-2.74A2.74,2.74,0,0,0,135.41,43"/></g></g><g class="cls-3"><g class="cls-44"><path class="cls-5" d="M135.41,174.24a2.74,2.74,0,1,0-2.74-2.74,2.74,2.74,0,0,0,2.74,2.74"/></g></g><g class="cls-3"><g class="cls-45"><path class="cls-5" d="M135.41,61.7A2.74,2.74,0,1,0,132.67,59a2.74,2.74,0,0,0,2.74,2.74"/></g></g><path class="cls-5" d="M135.41,193a2.74,2.74,0,1,0-2.74-2.74,2.74,2.74,0,0,0,2.74,2.74"/><circle class="cls-6" cx="135.41" cy="190.23" r="2.74"/><g class="cls-3"><g class="cls-46"><path class="cls-5" d="M135.41,80.44a2.74,2.74,0,1,0-2.74-2.74,2.74,2.74,0,0,0,2.74,2.74"/></g></g><path class="cls-5" d="M135.41,211.71a2.74,2.74,0,1,0-2.74-2.74,2.74,2.74,0,0,0,2.74,2.74"/><circle class="cls-6" cx="135.41" cy="208.97" r="2.74"/><g class="cls-3"><g class="cls-47"><path class="cls-5" d="M135.41,99.18a2.74,2.74,0,1,0-2.74-2.74,2.74,2.74,0,0,0,2.74,2.74"/></g></g><path class="cls-5" d="M135.41,230.45a2.74,2.74,0,1,0-2.74-2.74,2.74,2.74,0,0,0,2.74,2.74"/><circle class="cls-6" cx="135.41" cy="227.71" r="2.74"/><g class="cls-3"><g class="cls-48"><path class="cls-5" d="M135.41,117.92a2.74,2.74,0,1,0-2.74-2.74,2.74,2.74,0,0,0,2.74,2.74"/></g></g><path class="cls-5" d="M135.41,249.19a2.74,2.74,0,1,0-2.74-2.74,2.74,2.74,0,0,0,2.74,2.74"/><circle class="cls-6" cx="135.41" cy="246.45" r="2.74"/><path class="cls-5" d="M135.41,267.93a2.74,2.74,0,1,0-2.74-2.74,2.74,2.74,0,0,0,2.74,2.74"/><circle class="cls-6" cx="135.41" cy="265.18" r="2.74"/><g class="cls-3"><g class="cls-49"><path class="cls-5" d="M154.15,5.49a2.74,2.74,0,1,0-2.74-2.74,2.74,2.74,0,0,0,2.74,2.74"/></g></g><g class="cls-3"><g class="cls-50"><path class="cls-5" d="M154.15,136.76A2.74,2.74,0,1,0,151.4,134a2.74,2.74,0,0,0,2.74,2.74"/></g></g><g class="cls-3"><g class="cls-51"><path class="cls-5" d="M154.15,24.23a2.74,2.74,0,1,0-2.74-2.74,2.74,2.74,0,0,0,2.74,2.74"/></g></g><g class="cls-3"><g class="cls-52"><path class="cls-5" d="M154.15,155.5a2.74,2.74,0,1,0-2.74-2.74,2.74,2.74,0,0,0,2.74,2.74"/></g></g><g class="cls-3"><g class="cls-53"><path class="cls-5" d="M154.15,43a2.74,2.74,0,1,0-2.74-2.74A2.74,2.74,0,0,0,154.15,43"/></g></g><g class="cls-3"><g class="cls-54"><path class="cls-5" d="M154.15,174.24a2.74,2.74,0,1,0-2.74-2.74,2.74,2.74,0,0,0,2.74,2.74"/></g></g><g class="cls-3"><g class="cls-55"><path class="cls-5" d="M154.15,61.7A2.74,2.74,0,1,0,151.4,59a2.74,2.74,0,0,0,2.74,2.74"/></g></g><g class="cls-3"><g class="cls-56"><path class="cls-5" d="M154.15,193a2.74,2.74,0,1,0-2.74-2.74,2.74,2.74,0,0,0,2.74,2.74"/></g></g><g class="cls-3"><g class="cls-57"><path class="cls-5" d="M154.15,80.44a2.74,2.74,0,1,0-2.74-2.74,2.74,2.74,0,0,0,2.74,2.74"/></g></g><g class="cls-3"><g class="cls-58"><path class="cls-5" d="M154.15,211.71A2.74,2.74,0,1,0,151.4,209a2.74,2.74,0,0,0,2.74,2.74"/></g></g><g class="cls-3"><g class="cls-59"><path class="cls-5" d="M154.15,99.18a2.74,2.74,0,1,0-2.74-2.74,2.74,2.74,0,0,0,2.74,2.74"/></g></g><path class="cls-5" d="M154.15,230.45a2.74,2.74,0,1,0-2.74-2.74,2.74,2.74,0,0,0,2.74,2.74"/><circle class="cls-6" cx="154.15" cy="227.71" r="2.74"/><g class="cls-3"><g class="cls-60"><path class="cls-5" d="M154.15,117.92a2.74,2.74,0,1,0-2.74-2.74,2.74,2.74,0,0,0,2.74,2.74"/></g></g><path class="cls-5" d="M154.15,249.19a2.74,2.74,0,1,0-2.74-2.74,2.74,2.74,0,0,0,2.74,2.74"/><circle class="cls-6" cx="154.15" cy="246.45" r="2.74"/><path class="cls-5" d="M154.15,267.93a2.74,2.74,0,1,0-2.74-2.74,2.74,2.74,0,0,0,2.74,2.74"/><circle class="cls-6" cx="154.15" cy="265.18" r="2.74"/></g></g></svg>