<svg id="Layer_1" data-name="Layer 1" xmlns="http://www.w3.org/2000/svg" xmlns:xlink="http://www.w3.org/1999/xlink" viewBox="0 0 158.39 269.43"><defs><style>.cls-1,.cls-6{fill:none;}.cls-2{clip-path:url(#clip-path);}.cls-3{opacity:0.1;}.cls-4{clip-path:url(#clip-path-3);}.cls-5{fill:#d70036;}.cls-6{stroke:#d70036;stroke-miterlimit:10;stroke-width:2.91px;}.cls-7{clip-path:url(#clip-path-4);}.cls-8{clip-path:url(#clip-path-5);}</style><clipPath id="clip-path"><rect class="cls-1" x="40.36" y="0.34" width="77.52" height="268.81"/></clipPath><clipPath id="clip-path-3"><rect class="cls-1" x="33.09" y="-4.99" width="92.07" height="82.37"/></clipPath><clipPath id="clip-path-4"><rect class="cls-1" x="33.09" y="89.64" width="92.07" height="82.37"/></clipPath><clipPath id="clip-path-5"><rect class="cls-1" x="33.09" y="186.29" width="92.07" height="82.37"/></clipPath></defs><title>Ratings Academy SVGs</title><g class="cls-2"><g class="cls-2"><g class="cls-3"><g class="cls-4"><path class="cls-5" d="M79.12,76.4A37.31,37.31,0,1,0,41.82,39.1,37.31,37.31,0,0,0,79.12,76.4"/></g></g><path class="cls-5" d="M41.82,39.1A37.31,37.31,0,1,0,79.12,1.79l0,37.29Z"/><path class="cls-6" d="M41.82,39.1A37.31,37.31,0,1,0,79.12,1.79l0,37.29Z"/><g class="cls-3"><g class="cls-7"><path class="cls-5" d="M79.12,171a37.31,37.31,0,1,0-37.31-37.31A37.31,37.31,0,0,0,79.12,171"/></g></g><g class="cls-3"><g class="cls-8"><path class="cls-5" d="M79.12,267.69a37.31,37.31,0,1,0-37.31-37.31,37.31,37.31,0,0,0,37.31,37.31"/></g></g><path class="cls-5" d="M107.82,157.59a37.31,37.31,0,0,0-28.7-61.15l0,37.29Z"/><path class="cls-6" d="M107.82,157.59a37.31,37.31,0,0,0-28.7-61.15l0,37.29Z"/><path class="cls-5" d="M57.93,261.09a37.31,37.31,0,1,0,21.19-68l0,37.29Z"/><path class="cls-6" d="M57.93,261.09a37.31,37.31,0,1,0,21.19-68l0,37.29Z"/></g></g></svg>