<svg id="Layer_1" data-name="Layer 1" xmlns="http://www.w3.org/2000/svg" xmlns:xlink="http://www.w3.org/1999/xlink" viewBox="0 0 158.39 269.43"><defs><style>.cls-1,.cls-6{fill:none;}.cls-2{clip-path:url(#clip-path);}.cls-3{opacity:0.1;}.cls-4{clip-path:url(#clip-path-3);}.cls-5{fill:#d70036;}.cls-6{stroke:#d70036;stroke-miterlimit:10;stroke-width:3.14px;}.cls-7{clip-path:url(#clip-path-5);}.cls-8{clip-path:url(#clip-path-8);}.cls-9{clip-path:url(#clip-path-9);}.cls-10{clip-path:url(#clip-path-10);}.cls-11{clip-path:url(#clip-path-11);}.cls-12{clip-path:url(#clip-path-14);}.cls-13{clip-path:url(#clip-path-15);}.cls-14{clip-path:url(#clip-path-16);}.cls-15{clip-path:url(#clip-path-17);}.cls-16{clip-path:url(#clip-path-19);}.cls-17{clip-path:url(#clip-path-20);}.cls-18{clip-path:url(#clip-path-22);}.cls-19{clip-path:url(#clip-path-24);}.cls-20{clip-path:url(#clip-path-25);}.cls-21{clip-path:url(#clip-path-26);}.cls-22{clip-path:url(#clip-path-27);}.cls-23{clip-path:url(#clip-path-28);}.cls-24{clip-path:url(#clip-path-29);}.cls-25{clip-path:url(#clip-path-30);}.cls-26{clip-path:url(#clip-path-32);}.cls-27{clip-path:url(#clip-path-33);}.cls-28{clip-path:url(#clip-path-35);}.cls-29{clip-path:url(#clip-path-36);}.cls-30{clip-path:url(#clip-path-37);}.cls-31{clip-path:url(#clip-path-39);}.cls-32{clip-path:url(#clip-path-40);}.cls-33{clip-path:url(#clip-path-42);}.cls-34{clip-path:url(#clip-path-43);}.cls-35{clip-path:url(#clip-path-46);}.cls-36{clip-path:url(#clip-path-48);}.cls-37{clip-path:url(#clip-path-50);}.cls-38{clip-path:url(#clip-path-51);}.cls-39{clip-path:url(#clip-path-52);}.cls-40{clip-path:url(#clip-path-53);}.cls-41{clip-path:url(#clip-path-57);}.cls-42{clip-path:url(#clip-path-59);}.cls-43{clip-path:url(#clip-path-60);}.cls-44{clip-path:url(#clip-path-64);}.cls-45{clip-path:url(#clip-path-66);}.cls-46{clip-path:url(#clip-path-67);}.cls-47{clip-path:url(#clip-path-68);}.cls-48{clip-path:url(#clip-path-70);}.cls-49{clip-path:url(#clip-path-71);}.cls-50{clip-path:url(#clip-path-73);}</style><clipPath id="clip-path"><rect class="cls-1" width="158.39" height="269.43"/></clipPath><clipPath id="clip-path-3"><rect class="cls-1" x="-8.39" y="-5.38" width="34.29" height="20.84"/></clipPath><clipPath id="clip-path-5"><rect class="cls-1" x="-8.39" y="186.45" width="34.29" height="20.84"/></clipPath><clipPath id="clip-path-8"><rect class="cls-1" x="-8.39" y="207" width="34.29" height="20.84"/></clipPath><clipPath id="clip-path-9"><rect class="cls-1" x="-8.39" y="35.72" width="34.29" height="20.84"/></clipPath><clipPath id="clip-path-10"><rect class="cls-1" x="-8.39" y="131.65" width="34.29" height="20.84"/></clipPath><clipPath id="clip-path-11"><rect class="cls-1" x="-8.39" y="227.55" width="34.29" height="20.84"/></clipPath><clipPath id="clip-path-14"><rect class="cls-1" x="-8.39" y="248.1" width="34.29" height="20.84"/></clipPath><clipPath id="clip-path-15"><rect class="cls-1" x="15.09" y="-5.38" width="34.29" height="20.84"/></clipPath><clipPath id="clip-path-16"><rect class="cls-1" x="15.09" y="90.54" width="34.29" height="20.84"/></clipPath><clipPath id="clip-path-17"><rect class="cls-1" x="15.09" y="186.45" width="34.29" height="20.84"/></clipPath><clipPath id="clip-path-19"><rect class="cls-1" x="15.09" y="111.09" width="34.29" height="20.84"/></clipPath><clipPath id="clip-path-20"><rect class="cls-1" x="15.09" y="207" width="34.29" height="20.84"/></clipPath><clipPath id="clip-path-22"><rect class="cls-1" x="15.09" y="227.55" width="34.29" height="20.84"/></clipPath><clipPath id="clip-path-24"><rect class="cls-1" x="15.09" y="248.1" width="34.29" height="20.84"/></clipPath><clipPath id="clip-path-25"><rect class="cls-1" x="38.57" y="-5.38" width="34.29" height="20.84"/></clipPath><clipPath id="clip-path-26"><rect class="cls-1" x="38.57" y="90.54" width="34.29" height="20.84"/></clipPath><clipPath id="clip-path-27"><rect class="cls-1" x="38.57" y="186.45" width="34.29" height="20.84"/></clipPath><clipPath id="clip-path-28"><rect class="cls-1" x="38.57" y="15.17" width="34.29" height="20.84"/></clipPath><clipPath id="clip-path-29"><rect class="cls-1" x="38.57" y="111.09" width="34.29" height="20.84"/></clipPath><clipPath id="clip-path-30"><rect class="cls-1" x="38.57" y="207" width="34.29" height="20.84"/></clipPath><clipPath id="clip-path-32"><rect class="cls-1" x="38.57" y="56.27" width="34.29" height="20.84"/></clipPath><clipPath id="clip-path-33"><rect class="cls-1" x="38.57" y="152.2" width="34.29" height="20.84"/></clipPath><clipPath id="clip-path-35"><rect class="cls-1" x="62.05" y="-5.38" width="34.29" height="20.84"/></clipPath><clipPath id="clip-path-36"><rect class="cls-1" x="62.05" y="90.54" width="34.29" height="20.84"/></clipPath><clipPath id="clip-path-37"><rect class="cls-1" x="62.05" y="186.45" width="34.29" height="20.84"/></clipPath><clipPath id="clip-path-39"><rect class="cls-1" x="62.05" y="111.09" width="34.29" height="20.84"/></clipPath><clipPath id="clip-path-40"><rect class="cls-1" x="62.05" y="207" width="34.29" height="20.84"/></clipPath><clipPath id="clip-path-42"><rect class="cls-1" x="62.05" y="56.27" width="34.29" height="20.84"/></clipPath><clipPath id="clip-path-43"><rect class="cls-1" x="62.05" y="152.2" width="34.29" height="20.84"/></clipPath><clipPath id="clip-path-46"><rect class="cls-1" x="85.53" y="90.54" width="34.29" height="20.84"/></clipPath><clipPath id="clip-path-48"><rect class="cls-1" x="85.53" y="111.09" width="34.29" height="20.84"/></clipPath><clipPath id="clip-path-50"><rect class="cls-1" x="85.53" y="35.72" width="34.29" height="20.84"/></clipPath><clipPath id="clip-path-51"><rect class="cls-1" x="85.53" y="131.65" width="34.29" height="20.84"/></clipPath><clipPath id="clip-path-52"><rect class="cls-1" x="85.53" y="227.55" width="34.29" height="20.84"/></clipPath><clipPath id="clip-path-53"><rect class="cls-1" x="85.53" y="56.27" width="34.29" height="20.84"/></clipPath><clipPath id="clip-path-57"><rect class="cls-1" x="109.01" y="35.72" width="34.29" height="20.84"/></clipPath><clipPath id="clip-path-59"><rect class="cls-1" x="109.01" y="227.55" width="34.29" height="20.84"/></clipPath><clipPath id="clip-path-60"><rect class="cls-1" x="109.01" y="56.27" width="34.29" height="20.84"/></clipPath><clipPath id="clip-path-64"><rect class="cls-1" x="132.49" y="186.45" width="34.29" height="20.84"/></clipPath><clipPath id="clip-path-66"><rect class="cls-1" x="132.49" y="111.09" width="34.29" height="20.84"/></clipPath><clipPath id="clip-path-67"><rect class="cls-1" x="132.49" y="207" width="34.29" height="20.84"/></clipPath><clipPath id="clip-path-68"><rect class="cls-1" x="132.49" y="35.72" width="34.29" height="20.84"/></clipPath><clipPath id="clip-path-70"><rect class="cls-1" x="132.49" y="227.55" width="34.29" height="20.84"/></clipPath><clipPath id="clip-path-71"><rect class="cls-1" x="132.49" y="56.27" width="34.29" height="20.84"/></clipPath><clipPath id="clip-path-73"><rect class="cls-1" x="132.49" y="248.1" width="34.29" height="20.84"/></clipPath></defs><title>Ratings Academy SVGs</title><g class="cls-2"><g class="cls-2"><g class="cls-3"><g class="cls-4"><rect class="cls-5" x="1.68" y="1.47" width="14.16" height="13.01"/></g></g></g><rect class="cls-5" x="1.68" y="97.39" width="14.16" height="13.01"/><g class="cls-2"><rect class="cls-6" x="1.68" y="97.39" width="14.16" height="13.01"/><g class="cls-3"><g class="cls-7"><rect class="cls-5" x="1.68" y="193.3" width="14.16" height="13.01"/></g></g></g><rect class="cls-5" x="1.68" y="22.02" width="14.16" height="13.01"/><g class="cls-2"><rect class="cls-6" x="1.68" y="22.02" width="14.16" height="13.01"/></g><rect class="cls-5" x="1.68" y="117.95" width="14.16" height="13.01"/><g class="cls-2"><rect class="cls-6" x="1.68" y="117.95" width="14.16" height="13.01"/><g class="cls-3"><g class="cls-8"><rect class="cls-5" x="1.68" y="213.85" width="14.16" height="13.01"/></g></g><g class="cls-3"><g class="cls-9"><rect class="cls-5" x="1.68" y="42.57" width="14.16" height="13.01"/></g></g><g class="cls-3"><g class="cls-10"><rect class="cls-5" x="1.68" y="138.5" width="14.16" height="13.01"/></g></g><g class="cls-3"><g class="cls-11"><rect class="cls-5" x="1.68" y="234.4" width="14.16" height="13.01"/></g></g></g><rect class="cls-5" x="1.68" y="63.12" width="14.16" height="13.01"/><g class="cls-2"><rect class="cls-6" x="1.68" y="63.12" width="14.16" height="13.01"/></g><rect class="cls-5" x="1.68" y="159.05" width="14.16" height="13.01"/><g class="cls-2"><rect class="cls-6" x="1.68" y="159.05" width="14.16" height="13.01"/><g class="cls-3"><g class="cls-12"><rect class="cls-5" x="1.68" y="254.95" width="14.16" height="13.01"/></g></g><g class="cls-3"><g class="cls-13"><rect class="cls-5" x="25.16" y="1.47" width="14.16" height="13.01"/></g></g><g class="cls-3"><g class="cls-14"><rect class="cls-5" x="25.16" y="97.39" width="14.16" height="13.01"/></g></g><g class="cls-3"><g class="cls-15"><rect class="cls-5" x="25.16" y="193.3" width="14.16" height="13.01"/></g></g></g><rect class="cls-5" x="25.16" y="22.02" width="14.16" height="13.01"/><rect class="cls-6" x="25.16" y="22.02" width="14.16" height="13.01"/><g class="cls-2"><g class="cls-3"><g class="cls-16"><rect class="cls-5" x="25.16" y="117.95" width="14.16" height="13.01"/></g></g><g class="cls-3"><g class="cls-17"><rect class="cls-5" x="25.16" y="213.85" width="14.16" height="13.01"/></g></g></g><rect class="cls-5" x="25.16" y="42.57" width="14.16" height="13.01"/><rect class="cls-6" x="25.16" y="42.57" width="14.16" height="13.01"/><rect class="cls-5" x="25.16" y="138.5" width="14.16" height="13.01"/><rect class="cls-6" x="25.16" y="138.5" width="14.16" height="13.01"/><g class="cls-2"><g class="cls-3"><g class="cls-18"><rect class="cls-5" x="25.16" y="234.4" width="14.16" height="13.01"/></g></g></g><rect class="cls-5" x="25.16" y="63.12" width="14.16" height="13.01"/><rect class="cls-6" x="25.16" y="63.12" width="14.16" height="13.01"/><rect class="cls-5" x="25.16" y="159.05" width="14.16" height="13.01"/><rect class="cls-6" x="25.16" y="159.05" width="14.16" height="13.01"/><g class="cls-2"><g class="cls-3"><g class="cls-19"><rect class="cls-5" x="25.16" y="254.95" width="14.16" height="13.01"/></g></g><g class="cls-3"><g class="cls-20"><rect class="cls-5" x="48.64" y="1.47" width="14.16" height="13.01"/></g></g><g class="cls-3"><g class="cls-21"><rect class="cls-5" x="48.64" y="97.39" width="14.16" height="13.01"/></g></g><g class="cls-3"><g class="cls-22"><rect class="cls-5" x="48.64" y="193.3" width="14.16" height="13.01"/></g></g><g class="cls-3"><g class="cls-23"><rect class="cls-5" x="48.64" y="22.02" width="14.16" height="13.01"/></g></g><g class="cls-3"><g class="cls-24"><rect class="cls-5" x="48.64" y="117.95" width="14.16" height="13.01"/></g></g><g class="cls-3"><g class="cls-25"><rect class="cls-5" x="48.64" y="213.85" width="14.16" height="13.01"/></g></g></g><rect class="cls-5" x="48.64" y="42.57" width="14.16" height="13.01"/><rect class="cls-6" x="48.64" y="42.57" width="14.16" height="13.01"/><rect class="cls-5" x="48.64" y="138.5" width="14.16" height="13.01"/><rect class="cls-6" x="48.64" y="138.5" width="14.16" height="13.01"/><rect class="cls-5" x="48.64" y="234.4" width="14.16" height="13.01"/><rect class="cls-6" x="48.64" y="234.4" width="14.16" height="13.01"/><g class="cls-2"><g class="cls-3"><g class="cls-26"><rect class="cls-5" x="48.64" y="63.12" width="14.16" height="13.01"/></g></g><g class="cls-3"><g class="cls-27"><rect class="cls-5" x="48.64" y="159.05" width="14.16" height="13.01"/></g></g></g><rect class="cls-5" x="48.64" y="254.95" width="14.16" height="13.01"/><g class="cls-2"><rect class="cls-6" x="48.64" y="254.95" width="14.16" height="13.01"/><g class="cls-3"><g class="cls-28"><rect class="cls-5" x="72.11" y="1.47" width="14.16" height="13.01"/></g></g><g class="cls-3"><g class="cls-29"><rect class="cls-5" x="72.11" y="97.39" width="14.16" height="13.01"/></g></g><g class="cls-3"><g class="cls-30"><rect class="cls-5" x="72.11" y="193.3" width="14.16" height="13.01"/></g></g></g><rect class="cls-5" x="72.11" y="22.02" width="14.16" height="13.01"/><rect class="cls-6" x="72.11" y="22.02" width="14.16" height="13.01"/><g class="cls-2"><g class="cls-3"><g class="cls-31"><rect class="cls-5" x="72.11" y="117.95" width="14.16" height="13.01"/></g></g><g class="cls-3"><g class="cls-32"><rect class="cls-5" x="72.11" y="213.85" width="14.16" height="13.01"/></g></g></g><rect class="cls-5" x="72.11" y="42.57" width="14.16" height="13.01"/><rect class="cls-6" x="72.11" y="42.57" width="14.16" height="13.01"/><rect class="cls-5" x="72.11" y="138.5" width="14.16" height="13.01"/><rect class="cls-6" x="72.11" y="138.5" width="14.16" height="13.01"/><rect class="cls-5" x="72.11" y="234.4" width="14.16" height="13.01"/><rect class="cls-6" x="72.11" y="234.4" width="14.16" height="13.01"/><g class="cls-2"><g class="cls-3"><g class="cls-33"><rect class="cls-5" x="72.11" y="63.12" width="14.16" height="13.01"/></g></g><g class="cls-3"><g class="cls-34"><rect class="cls-5" x="72.11" y="159.05" width="14.16" height="13.01"/></g></g></g><rect class="cls-5" x="72.11" y="254.95" width="14.16" height="13.01"/><g class="cls-2"><rect class="cls-6" x="72.11" y="254.95" width="14.16" height="13.01"/></g><rect class="cls-5" x="95.59" y="1.47" width="14.16" height="13.01"/><g class="cls-2"><rect class="cls-6" x="95.59" y="1.47" width="14.16" height="13.01"/><g class="cls-3"><g class="cls-35"><rect class="cls-5" x="95.59" y="97.39" width="14.16" height="13.01"/></g></g></g><rect class="cls-5" x="95.59" y="193.3" width="14.16" height="13.01"/><rect class="cls-6" x="95.59" y="193.3" width="14.16" height="13.01"/><rect class="cls-5" x="95.59" y="22.02" width="14.16" height="13.01"/><rect class="cls-6" x="95.59" y="22.02" width="14.16" height="13.01"/><g class="cls-2"><g class="cls-3"><g class="cls-36"><rect class="cls-5" x="95.59" y="117.95" width="14.16" height="13.01"/></g></g></g><rect class="cls-5" x="95.59" y="213.85" width="14.16" height="13.01"/><rect class="cls-6" x="95.59" y="213.85" width="14.16" height="13.01"/><g class="cls-2"><g class="cls-3"><g class="cls-37"><rect class="cls-5" x="95.59" y="42.57" width="14.16" height="13.01"/></g></g><g class="cls-3"><g class="cls-38"><rect class="cls-5" x="95.59" y="138.5" width="14.16" height="13.01"/></g></g><g class="cls-3"><g class="cls-39"><rect class="cls-5" x="95.59" y="234.4" width="14.16" height="13.01"/></g></g><g class="cls-3"><g class="cls-40"><rect class="cls-5" x="95.59" y="63.12" width="14.16" height="13.01"/></g></g></g><rect class="cls-5" x="95.59" y="159.05" width="14.16" height="13.01"/><rect class="cls-6" x="95.59" y="159.05" width="14.16" height="13.01"/><rect class="cls-5" x="95.59" y="254.95" width="14.16" height="13.01"/><g class="cls-2"><rect class="cls-6" x="95.59" y="254.95" width="14.16" height="13.01"/></g><rect class="cls-5" x="119.07" y="1.47" width="14.16" height="13.01"/><g class="cls-2"><rect class="cls-6" x="119.07" y="1.47" width="14.16" height="13.01"/></g><rect class="cls-5" x="119.07" y="97.39" width="14.16" height="13.01"/><rect class="cls-6" x="119.07" y="97.39" width="14.16" height="13.01"/><rect class="cls-5" x="119.07" y="193.3" width="14.16" height="13.01"/><rect class="cls-6" x="119.07" y="193.3" width="14.16" height="13.01"/><rect class="cls-5" x="119.07" y="22.02" width="14.16" height="13.01"/><rect class="cls-6" x="119.07" y="22.02" width="14.16" height="13.01"/><rect class="cls-5" x="119.07" y="117.95" width="14.16" height="13.01"/><rect class="cls-6" x="119.07" y="117.95" width="14.16" height="13.01"/><rect class="cls-5" x="119.07" y="213.85" width="14.16" height="13.01"/><rect class="cls-6" x="119.07" y="213.85" width="14.16" height="13.01"/><g class="cls-2"><g class="cls-3"><g class="cls-41"><rect class="cls-5" x="119.07" y="42.57" width="14.16" height="13.01"/></g></g></g><rect class="cls-5" x="119.07" y="138.5" width="14.16" height="13.01"/><rect class="cls-6" x="119.07" y="138.5" width="14.16" height="13.01"/><g class="cls-2"><g class="cls-3"><g class="cls-42"><rect class="cls-5" x="119.07" y="234.4" width="14.16" height="13.01"/></g></g><g class="cls-3"><g class="cls-43"><rect class="cls-5" x="119.07" y="63.12" width="14.16" height="13.01"/></g></g></g><rect class="cls-5" x="119.07" y="159.05" width="14.16" height="13.01"/><rect class="cls-6" x="119.07" y="159.05" width="14.16" height="13.01"/><rect class="cls-5" x="119.07" y="254.95" width="14.16" height="13.01"/><g class="cls-2"><rect class="cls-6" x="119.07" y="254.95" width="14.16" height="13.01"/></g><rect class="cls-5" x="142.55" y="1.47" width="14.16" height="13.01"/><g class="cls-2"><rect class="cls-6" x="142.55" y="1.47" width="14.16" height="13.01"/></g><rect class="cls-5" x="142.55" y="97.39" width="14.16" height="13.01"/><g class="cls-2"><rect class="cls-6" x="142.55" y="97.39" width="14.16" height="13.01"/><g class="cls-3"><g class="cls-44"><rect class="cls-5" x="142.55" y="193.3" width="14.16" height="13.01"/></g></g></g><rect class="cls-5" x="142.55" y="22.02" width="14.16" height="13.01"/><g class="cls-2"><rect class="cls-6" x="142.55" y="22.02" width="14.16" height="13.01"/><g class="cls-3"><g class="cls-45"><rect class="cls-5" x="142.55" y="117.95" width="14.16" height="13.01"/></g></g><g class="cls-3"><g class="cls-46"><rect class="cls-5" x="142.55" y="213.85" width="14.16" height="13.01"/></g></g><g class="cls-3"><g class="cls-47"><rect class="cls-5" x="142.55" y="42.57" width="14.16" height="13.01"/></g></g></g><rect class="cls-5" x="142.55" y="138.5" width="14.16" height="13.01"/><g class="cls-2"><rect class="cls-6" x="142.55" y="138.5" width="14.16" height="13.01"/><g class="cls-3"><g class="cls-48"><rect class="cls-5" x="142.55" y="234.4" width="14.16" height="13.01"/></g></g><g class="cls-3"><g class="cls-49"><rect class="cls-5" x="142.55" y="63.12" width="14.16" height="13.01"/></g></g></g><rect class="cls-5" x="142.55" y="159.05" width="14.16" height="13.01"/><g class="cls-2"><rect class="cls-6" x="142.55" y="159.05" width="14.16" height="13.01"/><g class="cls-3"><g class="cls-50"><rect class="cls-5" x="142.55" y="254.95" width="14.16" height="13.01"/></g></g></g></g></svg>