<svg id="Layer_1" data-name="Layer 1" xmlns="http://www.w3.org/2000/svg" viewBox="0 0 34.47 28.97"><defs><style>.cls-1{fill:#d70036;}.cls-2{fill:#fff;}</style></defs><title>Ratings Academy SVGs</title><path class="cls-1" d="M29.56,13.12V10.92a0.5,0.5,0,0,0-.38-0.56H5.26a0.5,0.5,0,0,0-.38.56v8.55a0.5,0.5,0,0,0,.38.56H29.18a0.5,0.5,0,0,0,.38-0.56V14.68"/><circle class="cls-2" cx="9.2" cy="14.42" r="0.55"/><circle class="cls-2" cx="12.59" cy="14.42" r="0.55"/><circle class="cls-2" cx="15.98" cy="14.42" r="0.55"/><circle class="cls-2" cx="9.2" cy="16.33" r="0.55"/><circle class="cls-2" cx="12.59" cy="16.33" r="0.55"/><circle class="cls-2" cx="15.98" cy="16.33" r="0.55"/><circle class="cls-2" cx="19.42" cy="14.42" r="0.55"/><circle class="cls-2" cx="22.81" cy="14.42" r="0.55"/><circle class="cls-2" cx="26.2" cy="14.42" r="0.55"/><circle class="cls-2" cx="19.42" cy="16.33" r="0.55"/><circle class="cls-2" cx="22.81" cy="16.33" r="0.55"/><circle class="cls-2" cx="26.2" cy="16.33" r="0.55"/></svg>