<svg id="Layer_1" data-name="Layer 1" xmlns="http://www.w3.org/2000/svg" xmlns:xlink="http://www.w3.org/1999/xlink" viewBox="0 0 34.47 28.97"><defs><style>.cls-1{fill:none;}.cls-2{clip-path:url(#clip-path);}.cls-3{fill:#d70036;}</style><clipPath id="clip-path"><rect class="cls-1" x="4.07" y="5.17" width="26.36" height="20.21"/></clipPath></defs><title>Ratings Academy SVGs</title><g class="cls-2"><path class="cls-3" d="M26,21.12a0.88,0.88,0,1,0,.88.88A0.88,0.88,0,0,0,26,21.12"/><path class="cls-3" d="M29.86,5.17H4.66a0.58,0.58,0,0,0-.58.58V21.62a0.58,0.58,0,0,0,.58.58H24.14a0.25,0.25,0,1,0,0-.5H4.66a0.08,0.08,0,0,1-.08-0.08V5.76a0.08,0.08,0,0,1,.08-0.08h25.2a0.08,0.08,0,0,1,.08.08V21.62a0.08,0.08,0,0,1-.08.08H28a0.25,0.25,0,0,0,0,.5h1.89a0.58,0.58,0,0,0,.58-0.58V5.76a0.58,0.58,0,0,0-.58-0.58"/><path class="cls-3" d="M15.22,23H19.3a0.17,0.17,0,0,1,.17.17v0.53a0.16,0.16,0,0,1-.16.16H15.22a0.17,0.17,0,0,1-.17-0.17V23.14A0.17,0.17,0,0,1,15.22,23Z"/><path class="cls-3" d="M21.5,24.53H13a0.17,0.17,0,0,0-.16.17v0.52a0.17,0.17,0,0,0,.16.17H21.5a0.17,0.17,0,0,0,.17-0.17V24.7a0.17,0.17,0,0,0-.17-0.17"/><path class="cls-3" d="M28.24,19.68V7.7a0.33,0.33,0,0,0-.33-0.33H6.6a0.33,0.33,0,0,0-.33.33v12A0.33,0.33,0,0,0,6.6,20H27.91a0.33,0.33,0,0,0,.33-0.33"/></g></svg>