<svg id="Layer_1" data-name="Layer 1" xmlns="http://www.w3.org/2000/svg" viewBox="0 0 308.47 109.67"><defs><style>.cls-1{fill:#fff;}</style></defs><title>Ratings Academy SVGs</title><polygon class="cls-1" points="153.68 0 139.67 40.22 96.98 42.24 130.78 68.22 119.36 109.67 154.36 84.83 190.58 108.63 177.69 67.93 211.55 40.95 168.21 40.2 153.68 0"/><polygon class="cls-1" points="28.68 45.02 0 46.38 22.7 63.83 15.03 91.67 38.54 74.98 62.88 90.97 54.22 63.63 76.97 45.51 47.85 45.01 38.09 18 28.68 45.02"/><polygon class="cls-1" points="260.18 45.02 231.5 46.38 254.2 63.83 246.53 91.67 270.04 74.98 294.38 90.97 285.72 63.63 308.47 45.51 279.35 45.01 269.59 18 260.18 45.02"/></svg>